<?xml version="1.0" standalone="no"?>
<!DOCTYPE svg PUBLIC "-//W3C//DTD SVG 20010904//EN" "http://www.w3.org/TR/2001/REC-SVG-20010904/DTD/svg10.dtd">
<svg version="1.0" xmlns="http://www.w3.org/2000/svg" width="300.000000pt" height="300.000000pt"
  viewBox="0 0 300.000000 300.000000" preserveAspectRatio="xMidYMid meet">

  <g transform="translate(0.000000,300.000000) scale(0.100000,-0.100000)" fill="#000000" stroke="none">
    <path d="M1463 1772 c-172 -1 -313 -6 -313 -10 0 -7 621 -4 629 3 2 3 2 6 0 8
-2 1 -145 1 -316 -1z" />
    <path d="M1791 1639 c2 -131 2 -132 -21 -141 -15 -6 -26 -5 -30 3 -4 6 -16 9
-26 7 -14 -2 -23 -19 -33 -65 -15 -64 -42 -93 -75 -80 -25 10 -18 31 16 47 41
19 56 65 26 81 -64 34 -139 -92 -94 -157 14 -20 14 -20 -20 -10 -35 11 -35 12
-30 51 4 22 14 73 23 113 11 49 13 76 7 82 -21 21 -40 -2 -52 -63 -32 -158
-35 -167 -54 -167 -22 0 -22 2 6 127 13 57 21 105 18 108 -3 3 -13 5 -23 5
-20 0 -21 -2 -44 -115 -23 -110 -24 -115 -41 -115 -18 0 -18 17 6 124 11 49
17 92 15 96 -5 8 -36 2 -78 -15 -23 -10 -49 -59 -41 -79 10 -25 34 -19 34 8 0
34 10 56 25 56 9 0 7 -24 -9 -99 -12 -55 -24 -103 -29 -107 -4 -4 -29 -8 -55
-8 l-48 -1 0 207 c1 115 -3 208 -7 208 -5 0 -7 -67 -5 -149 l3 -150 -37 2
c-34 1 -37 4 -32 24 5 19 2 23 -18 23 -22 0 -26 -6 -37 -66 -9 -50 -9 -69 0
-80 16 -19 68 -18 91 3 21 19 23 17 31 -18 6 -24 2 -28 -63 -56 -39 -17 -70
-36 -70 -42 0 -8 135 -11 455 -11 501 0 511 1 391 55 -36 16 -63 32 -60 36 2
4 -3 9 -11 13 -8 3 -15 0 -15 -6 0 -6 -3 -9 -6 -6 -9 10 16 49 26 43 6 -4 10
73 9 199 0 125 -5 208 -11 212 -6 4 -9 -41 -7 -127z m-165 -204 c-23 -35 -40
-22 -20 17 11 21 19 27 26 20 8 -8 6 -19 -6 -37z m140 21 c13 -33 -30 -115
-50 -95 -5 4 6 55 19 97 6 16 24 15 31 -2z m-656 -50 c0 -25 -12 -46 -26 -46
-15 0 -18 18 -8 44 8 20 34 21 34 2z m550 -66 c0 -5 -8 -10 -17 -10 -15 0 -16
2 -3 10 19 12 20 12 20 0z m-263 -46 c-3 -3 -12 -4 -19 -1 -8 3 -5 6 6 6 11 1
17 -2 13 -5z m49 -13 c5 -5 20 -11 34 -14 24 -4 24 -4 -3 -6 -16 0 -35 6 -43
14 -16 16 -5 22 12 6z m359 -1 c3 -5 1 -10 -4 -10 -6 0 -11 5 -11 10 0 6 2 10
4 10 3 0 8 -4 11 -10z m40 -10 c3 -5 1 -10 -4 -10 -6 0 -11 5 -11 10 0 6 2 10
4 10 3 0 8 -4 11 -10z" />
    <path d="M1985 1570 c-3 -5 -28 -10 -55 -10 -53 0 -68 -16 -45 -47 20 -25 18
-30 -8 -37 -44 -11 -75 -104 -45 -134 21 -21 65 -14 87 14 29 37 36 85 17 122
-21 40 -20 42 8 42 27 0 56 24 56 46 0 16 -6 18 -15 4z m-65 -135 c0 -32 -20
-75 -36 -75 -20 0 -25 29 -9 66 16 40 45 46 45 9z" />
    <path d="M423 1550 c-32 -19 -51 -59 -38 -79 11 -19 25 -12 25 13 0 13 9 34
20 47 18 23 19 23 19 4 1 -11 -8 -60 -19 -109 -11 -50 -20 -91 -20 -93 0 -2
10 -3 23 -3 17 0 32 17 67 79 25 44 46 78 48 76 1 -1 -4 -31 -13 -66 -20 -85
-19 -91 7 -87 19 3 25 16 45 108 28 130 28 130 1 130 -18 0 -32 -16 -65 -78
-45 -81 -52 -76 -29 21 l13 57 -26 0 c-14 0 -41 -9 -58 -20z" />
    <path d="M2491 1544 c-11 -14 -26 -41 -33 -60 -13 -38 -33 -45 -41 -14 -4 15
-14 20 -40 20 -41 0 -63 -22 -80 -80 -15 -53 -37 -65 -37 -20 0 23 -5 33 -20
37 -39 10 -14 40 29 34 16 -2 22 2 19 11 -9 26 -45 20 -73 -14 l-28 -33 8 34
c6 30 5 32 -16 29 -19 -2 -26 -13 -37 -61 -13 -52 -33 -79 -48 -65 -2 3 2 33
10 67 l14 61 -52 0 c-66 0 -96 -27 -103 -92 -7 -57 13 -77 60 -60 17 6 33 8
36 3 4 -4 29 -8 58 -9 51 -1 51 -1 60 36 10 41 40 53 35 14 -2 -13 2 -30 8
-38 14 -16 56 -19 65 -4 4 7 12 7 25 0 10 -5 28 -10 38 -10 24 0 72 54 72 81
0 10 5 19 10 19 6 0 10 -17 10 -38 0 -45 14 -62 52 -62 32 0 64 30 71 69 4 17
16 32 33 39 14 7 24 15 22 18 -3 2 -17 -1 -32 -7 -14 -7 -28 -10 -31 -7 -3 3
0 25 6 50 7 25 9 52 6 61 -10 26 -53 21 -76 -9z m59 -13 c0 -27 -21 -81 -31
-81 -5 0 -9 -7 -9 -15 0 -8 7 -15 15 -15 18 0 19 -14 5 -41 -12 -22 -38 -25
-46 -6 -6 16 11 96 31 143 15 37 35 45 35 15z m-159 -104 c-3 -46 -15 -67 -39
-67 -20 0 -10 74 14 101 23 25 29 17 25 -34z m-331 19 c0 -37 -21 -86 -36 -86
-20 0 -21 40 -3 87 11 30 39 30 39 -1z" />
    <path d="M908 1503 c-9 -2 -18 -16 -20 -30 -4 -36 -26 -41 -38 -9 -22 58 -110
17 -124 -58 -7 -34 -21 -46 -57 -46 -27 0 -24 25 6 44 35 23 50 53 34 72 -26
31 -99 7 -99 -33 0 -12 4 -10 18 6 13 16 21 18 32 11 13 -9 9 -16 -23 -43 -20
-17 -37 -39 -37 -47 0 -39 57 -53 98 -24 20 14 24 14 38 0 36 -36 99 -5 111
54 3 17 12 30 19 30 17 0 17 2 -6 -95 -10 -44 -17 -81 -15 -83 2 -2 13 -1 24
3 13 4 23 18 27 41 5 29 10 34 35 34 52 0 84 51 77 121 -3 30 -6 34 -33 34
-16 0 -34 5 -40 11 -5 6 -18 9 -27 7z m-87 -76 c-3 -46 -15 -67 -39 -67 -19 0
-11 60 13 97 21 32 30 22 26 -30z m149 13 c0 -42 -20 -80 -42 -80 -14 0 -18 5
-14 18 3 9 8 31 12 47 9 40 13 45 30 45 9 0 14 -10 14 -30z" />
    <path d="M1790 1340 c0 -5 5 -10 11 -10 5 0 7 5 4 10 -3 6 -8 10 -11 10 -2 0
-4 -4 -4 -10z" />
  </g>
</svg>
