<?xml version="1.0" standalone="no"?>
<!DOCTYPE svg PUBLIC "-//W3C//DTD SVG 20010904//EN"
 "http://www.w3.org/TR/2001/REC-SVG-20010904/DTD/svg10.dtd">
<svg version="1.0" xmlns="http://www.w3.org/2000/svg"
 width="100.000000pt" height="100.000000pt" viewBox="0 0 100.000000 100.000000"
 preserveAspectRatio="xMidYMid meet">

<g transform="translate(0.000000,100.000000) scale(0.100000,-0.100000)"
fill="currentcolor" stroke="none">
<path d="M52 908 c-17 -17 -17 -619 0 -636 8 -8 52 -12 133 -12 162 1 178 15
135 114 l-21 46 -109 0 -110 0 0 230 0 230 420 0 420 0 0 -230 0 -230 -110 0
-110 0 -20 -40 c-26 -51 -26 -96 -1 -110 28 -15 254 -13 269 2 17 17 17 619 0
636 -17 17 -879 17 -896 0z m808 -568 c0 -13 -7 -20 -20 -20 -13 0 -20 7 -20
20 0 13 7 20 20 20 13 0 20 -7 20 -20z"/>
<path d="M460 831 c-120 -37 -162 -105 -156 -253 3 -84 7 -100 40 -163 41 -79
47 -132 17 -159 -10 -10 -56 -36 -102 -59 -81 -41 -128 -84 -115 -106 10 -15
702 -15 712 0 14 23 -36 66 -132 115 l-99 50 -3 47 c-3 38 4 60 36 120 37 71
38 76 37 173 0 120 -17 157 -85 191 -24 13 -48 30 -53 38 -9 16 -54 19 -97 6z"/>
</g>
</svg>
