<svg version="1.0" xmlns="http://www.w3.org/2000/svg"
 width="1024.000000pt" height="222.000000pt" viewBox="0 0 1024.000000 222.000000"
 preserveAspectRatio="xMidYMid meet">

<g transform="translate(0.000000,222.000000) scale(0.100000,-0.100000)"
fill="currentcolor" stroke="none">
<path d="M7150 1735 c-19 -8 -74 -14 -121 -14 -192 -2 -279 -68 -343 -263 -72
-223 -43 -438 75 -557 99 -98 286 -90 380 17 56 64 90 150 90 231 0 98 -22
160 -82 225 -99 109 -214 124 -361 48 -18 -9 -6 28 22 66 41 57 69 68 189 75
129 8 180 29 217 93 46 78 18 111 -66 79z m60 -22 c0 -5 -9 -22 -20 -40 -30
-50 -71 -65 -196 -73 -68 -5 -123 -14 -142 -24 -62 -32 -115 -132 -127 -237
-5 -46 -4 -51 7 -34 7 11 33 41 58 66 87 89 221 91 318 4 145 -130 120 -375
-47 -473 -39 -23 -57 -27 -122 -27 -67 0 -81 4 -125 30 -41 26 -56 44 -88 108
-38 74 -40 82 -44 190 -5 133 11 215 63 323 39 81 95 137 152 154 21 6 90 13
153 17 63 3 122 9 130 14 19 11 30 11 30 2z"/>
<path d="M6859 1377 c-104 -69 -86 -355 28 -441 36 -26 93 -32 132 -11 87 44
105 257 33 389 -46 84 -123 110 -193 63z m119 -30 c12 -6 36 -38 53 -72 27
-55 30 -71 30 -154 0 -69 -5 -102 -18 -129 -32 -65 -97 -75 -149 -24 -38 38
-52 71 -64 148 -20 122 5 214 63 239 31 13 44 12 85 -8z"/>
<path d="M487 1703 c-4 -3 -7 -19 -7 -34 0 -23 5 -30 28 -35 78 -17 76 -15 85
-90 13 -109 4 -581 -10 -595 -7 -7 -32 -15 -55 -18 -41 -6 -43 -7 -43 -41 l0
-35 192 -3 c184 -2 193 -2 203 18 15 28 -4 60 -35 60 -13 0 -35 4 -49 10 -49
18 -35 48 120 247 80 104 150 190 155 191 11 5 12 -408 0 -426 -4 -8 -27 -16
-50 -19 -48 -7 -68 -31 -51 -63 10 -20 19 -20 203 -18 l192 3 0 35 c0 33 -2
35 -44 42 -25 4 -48 11 -53 16 -5 5 -7 156 -6 337 l3 330 25 7 c14 4 38 10 53
13 25 5 28 10 25 38 l-3 32 -192 3 c-184 2 -193 2 -203 -18 -17 -32 4 -60 45
-60 37 0 65 -21 65 -50 0 -17 -42 -77 -145 -206 -102 -129 -156 -194 -160
-194 -9 0 -5 415 4 428 4 8 27 16 50 19 48 7 68 31 51 63 -10 19 -21 20 -199
20 -103 0 -191 -3 -194 -7z m356 -28 c-1 -5 -19 -13 -39 -16 -64 -11 -64 -13
-64 -313 0 -163 4 -266 9 -260 5 5 88 110 185 234 156 200 176 229 176 263 0
41 -27 77 -59 77 -28 0 -52 11 -45 21 7 12 334 12 334 0 0 -11 -25 -21 -51
-21 -10 0 -28 -9 -39 -20 -19 -19 -20 -33 -20 -353 0 -375 -1 -372 71 -383 86
-14 31 -24 -131 -24 -161 0 -217 10 -132 24 73 11 73 10 70 310 l-3 268 -180
-232 c-153 -196 -180 -237 -183 -269 -4 -48 15 -69 69 -77 86 -14 30 -24 -131
-24 -161 0 -217 10 -131 24 55 8 68 26 76 98 12 108 2 600 -12 625 -13 21 -20
25 -76 37 -15 4 -25 11 -22 17 9 13 331 8 328 -6z"/>
<path d="M4144 1685 c-8 -31 10 -55 40 -55 12 0 31 -6 42 -14 18 -14 19 -29
19 -339 0 -179 -3 -329 -7 -333 -4 -4 -24 -10 -44 -13 -44 -7 -64 -32 -48 -58
10 -17 48 -18 490 -23 534 -6 523 -4 582 -76 18 -21 40 -63 50 -94 18 -52 20
-55 53 -55 l34 0 3 130 c3 158 0 175 -34 175 -14 0 -34 5 -45 10 -18 10 -19
25 -19 340 0 239 3 331 12 336 6 4 25 10 41 13 38 8 56 34 41 59 -10 15 -32
17 -182 20 l-172 2 -6 -25 c-7 -29 10 -55 37 -55 9 0 25 -7 33 -16 14 -13 16
-58 16 -340 l0 -324 -107 0 c-60 0 -114 4 -121 8 -9 7 -12 80 -10 333 l3 324
35 11 c43 14 59 37 44 62 -10 15 -30 17 -174 17 -144 0 -164 -2 -174 -17 -15
-25 1 -48 44 -62 l35 -11 3 -333 2 -333 -117 3 -118 3 -3 322 c-2 282 0 323
14 337 8 9 24 16 33 16 27 0 44 26 37 55 l-6 25 -175 0 -175 0 -6 -25z m329
-10 c1 -5 -8 -11 -20 -13 -13 -2 -32 -15 -43 -29 -19 -25 -20 -40 -20 -359 0
-319 1 -334 19 -344 25 -13 251 -13 271 0 13 8 15 57 18 324 1 173 -1 330 -5
348 -7 26 -19 38 -53 55 -61 29 -42 34 118 31 130 -3 167 -14 102 -31 -20 -5
-34 -17 -40 -33 -6 -14 -10 -168 -10 -354 0 -315 1 -330 19 -340 11 -5 74 -10
140 -10 95 0 123 3 135 16 14 13 16 57 15 332 -1 174 -4 328 -8 342 -4 15 -21
32 -44 43 -20 10 -35 23 -31 28 7 12 281 12 289 -1 3 -5 -7 -12 -22 -16 -15
-4 -38 -16 -50 -27 -23 -20 -23 -21 -23 -358 l0 -338 26 -20 c15 -12 37 -21
50 -21 24 0 24 0 24 -125 0 -69 -4 -125 -8 -125 -5 0 -16 26 -26 58 -26 81
-91 145 -164 161 -35 7 -207 11 -502 11 -412 0 -513 6 -416 24 62 12 61 6 61
376 0 374 2 362 -66 380 -22 6 -37 15 -34 21 9 13 294 7 298 -6z"/>
<path d="M2139 1457 c-53 -15 -94 -43 -139 -93 -54 -62 -73 -118 -74 -214 -1
-77 2 -92 32 -152 68 -138 195 -196 338 -153 143 43 236 226 199 396 -17 80
-94 173 -167 203 -53 22 -136 28 -189 13z m158 -32 c147 -44 220 -235 149
-390 -52 -115 -118 -160 -236 -160 -92 0 -145 25 -191 88 -46 63 -61 105 -62
177 -4 207 155 340 340 285z"/>
<path d="M2129 1377 c-78 -52 -92 -246 -26 -372 43 -84 129 -117 195 -75 50
31 66 78 67 195 0 94 -2 105 -34 169 -51 104 -126 134 -202 83z m112 -23 c22
-11 40 -35 62 -82 27 -58 31 -76 31 -156 -1 -128 -30 -181 -101 -179 -126 4
-197 319 -91 408 34 29 57 31 99 9z"/>
<path d="M2710 1461 c-14 -5 -60 -23 -102 -40 -65 -27 -78 -37 -78 -56 0 -29
24 -49 50 -42 16 4 23 -1 31 -19 14 -39 12 -607 -3 -622 -7 -7 -24 -12 -40
-12 -34 0 -54 -31 -38 -60 10 -19 21 -20 164 -20 161 0 182 6 174 46 -3 19
-21 30 -60 39 -28 5 -28 6 -28 83 l0 78 83 0 c97 -1 141 18 201 85 55 60 79
120 84 213 9 143 -36 250 -125 303 -61 36 -142 38 -196 4 l-38 -23 -24 26
c-13 14 -25 26 -27 25 -2 0 -14 -4 -28 -8z m30 -76 c0 -30 4 -55 9 -55 5 0 21
16 36 36 83 108 230 90 300 -37 28 -50 30 -61 30 -159 0 -95 -3 -110 -27 -156
-34 -65 -95 -120 -150 -135 -52 -14 -128 -6 -162 17 -24 15 -26 15 -32 0 -11
-28 0 -222 14 -239 7 -8 26 -17 42 -21 17 -3 30 -10 30 -16 0 -6 -49 -10 -134
-10 -131 0 -182 11 -111 24 66 13 66 15 63 380 -3 357 -1 346 -62 346 -16 0
-26 3 -22 8 10 9 147 70 164 71 8 1 12 -16 12 -54z"/>
<path d="M2834 1349 c-18 -5 -46 -25 -64 -46 l-32 -36 4 -141 c4 -153 12 -179
65 -207 35 -19 105 -16 137 5 14 9 36 35 48 59 19 35 23 58 23 137 0 82 -4
102 -25 144 -38 76 -91 105 -156 85z m96 -57 c100 -100 64 -362 -50 -362 -37
0 -85 23 -94 45 -3 9 -6 79 -6 155 l0 138 31 26 c41 35 83 34 119 -2z"/>
<path d="M5639 1461 c-165 -34 -259 -235 -201 -427 25 -80 65 -133 130 -172
39 -22 59 -27 117 -27 59 0 78 5 118 28 53 32 108 106 128 175 12 40 11 45 -9
65 -27 27 -49 17 -73 -34 -9 -19 -26 -42 -37 -52 -23 -21 -80 -32 -116 -23
-59 15 -125 103 -126 168 l0 28 183 2 182 3 3 28 c9 78 -54 184 -132 221 -39
19 -120 27 -167 17z m124 -32 c58 -16 114 -72 132 -132 8 -28 15 -56 15 -64 0
-10 -42 -13 -187 -15 l-188 -3 2 -40 c4 -58 21 -102 56 -141 41 -47 77 -64
137 -64 66 0 105 21 139 75 30 48 44 50 31 6 -49 -173 -230 -235 -359 -125
-62 53 -85 112 -85 219 -1 117 18 169 85 229 67 60 140 78 222 55z"/>
<path d="M5613 1384 c-36 -18 -69 -65 -75 -104 l-3 -25 125 0 125 0 -3 35 c-5
47 -17 67 -55 90 -39 24 -71 25 -114 4z m81 -24 c14 -5 33 -21 42 -35 15 -23
15 -28 3 -36 -17 -11 -139 -12 -156 -1 -23 15 35 71 84 82 1 0 13 -4 27 -10z"/>
<path d="M6065 1434 c-111 -44 -119 -52 -105 -88 9 -23 15 -27 43 -24 l32 3 0
-325 c0 -317 0 -325 -20 -328 -63 -9 -66 -12 -63 -45 l3 -32 165 0 165 0 0 35
c0 31 -3 35 -30 38 -48 6 -55 18 -55 96 l0 72 88 0 c77 -1 92 2 134 26 85 51
140 144 153 264 8 64 -7 159 -31 206 -22 42 -73 97 -108 115 -47 25 -134 22
-179 -5 -45 -26 -57 -27 -57 -7 0 11 -29 36 -42 35 -2 0 -43 -17 -93 -36z
m105 -49 c0 -30 3 -55 6 -55 4 0 24 20 46 45 73 83 169 85 248 6 50 -50 80
-128 80 -207 0 -57 -26 -147 -54 -193 -62 -98 -188 -139 -281 -91 -22 11 -41
20 -42 20 -2 0 -3 -51 -3 -113 0 -126 9 -150 60 -161 18 -3 29 -10 25 -16 -8
-13 -262 -14 -269 -1 -4 5 8 13 26 16 18 4 39 12 46 17 17 15 18 678 0 696 -7
7 -25 12 -42 12 -19 0 -27 3 -20 10 11 11 144 68 162 69 8 1 12 -16 12 -54z"/>
<path d="M6266 1349 c-16 -4 -44 -23 -63 -41 l-33 -32 0 -141 c0 -131 2 -145
23 -176 42 -62 127 -73 186 -23 44 37 64 96 64 191 0 68 -4 91 -27 136 -37 76
-87 105 -150 86z m83 -50 c41 -38 61 -97 61 -181 0 -87 -10 -121 -48 -160 -34
-37 -89 -38 -129 -4 -28 24 -28 26 -31 151 -2 70 -1 137 2 150 7 28 62 65 97
65 14 0 36 -10 48 -21z"/>
<path d="M7475 1461 c-123 -30 -193 -146 -132 -217 51 -59 137 -18 137 65 0
44 14 61 50 61 39 0 61 -21 67 -65 l5 -40 -91 -38 c-94 -40 -170 -98 -196
-148 -20 -37 -19 -113 1 -152 41 -84 142 -111 238 -62 l53 27 26 -26 c34 -33
77 -34 133 -1 56 33 86 76 82 117 -4 41 -31 48 -64 17 l-24 -22 0 169 c0 93
-5 186 -10 206 -24 87 -154 138 -275 109z m180 -42 c16 -8 38 -27 49 -42 19
-26 21 -44 24 -222 4 -220 9 -236 62 -196 20 14 30 17 30 9 -1 -32 -81 -98
-118 -98 -30 0 -62 26 -62 51 0 32 -18 30 -70 -7 -93 -67 -191 -52 -227 33
-17 43 -13 102 11 139 26 38 90 80 187 120 l89 37 0 46 c0 25 -6 57 -13 71
-17 34 -76 53 -117 39 -37 -13 -50 -36 -50 -83 0 -35 -27 -76 -50 -76 -15 0
-50 38 -50 55 0 55 52 113 120 134 45 13 149 8 185 -10z"/>
<path d="M7545 1171 c-111 -52 -147 -132 -89 -200 32 -39 71 -41 131 -6 l43
26 0 104 c0 77 -3 105 -12 105 -7 0 -40 -13 -73 -29z m55 -91 c0 -69 -1 -71
-32 -90 -43 -26 -73 -25 -92 2 -33 46 -8 101 62 138 59 31 62 28 62 -50z"/>
<path d="M8673 1461 c-89 -23 -169 -97 -204 -191 -30 -78 -23 -204 14 -276 37
-72 114 -139 178 -154 169 -41 315 61 359 249 33 141 -32 286 -159 350 -43 22
-141 34 -188 22z m186 -53 c123 -64 173 -235 110 -377 -53 -120 -184 -185
-307 -151 -52 14 -125 77 -154 135 -33 62 -36 174 -8 249 57 151 218 216 359
144z"/>
<path d="M8654 1381 c-108 -66 -84 -368 36 -449 28 -19 44 -23 78 -19 91 10
129 89 119 244 -11 184 -123 291 -233 224z m128 -38 c41 -37 70 -113 75 -198
6 -94 -7 -152 -42 -185 -52 -48 -120 -21 -164 66 -30 58 -41 207 -21 268 23
72 100 97 152 49z"/>
<path d="M8306 1450 c-45 -14 -76 -49 -112 -126 -31 -68 -67 -109 -86 -98 -12
7 -10 102 2 125 7 12 21 19 40 19 35 0 52 25 39 58 -8 21 -12 22 -158 22 -140
0 -151 -1 -161 -20 -15 -28 3 -58 37 -62 37 -4 40 -23 42 -234 1 -182 -3 -200
-48 -206 -32 -4 -50 -32 -35 -55 10 -16 31 -18 162 -21 143 -2 152 -1 162 18
16 30 -4 60 -41 60 -22 0 -32 6 -39 26 -13 32 -13 144 -1 144 5 0 24 -26 41
-57 18 -32 53 -88 78 -125 l45 -68 98 0 c97 0 99 0 105 25 8 31 -8 51 -46 58
-24 5 -39 23 -87 103 -32 53 -68 108 -80 123 l-21 27 26 58 27 58 52 -7 c47
-6 55 -4 78 19 71 71 -14 169 -119 136z m-146 -30 c0 -5 -10 -10 -23 -10 -49
0 -62 -22 -66 -115 -2 -48 1 -91 6 -96 15 -15 73 2 101 31 15 15 37 55 50 88
13 34 35 71 49 82 61 48 143 30 143 -31 0 -36 -29 -50 -78 -37 -47 13 -67 3
-88 -45 -10 -23 -27 -55 -37 -70 l-19 -29 29 -31 c17 -18 50 -66 73 -107 62
-108 86 -137 120 -145 59 -13 30 -26 -51 -23 l-82 3 -68 115 c-93 156 -97 162
-122 158 -21 -3 -22 -8 -22 -116 0 -101 2 -115 19 -128 11 -8 30 -14 43 -14
13 0 23 -4 23 -10 0 -6 -50 -10 -130 -10 -123 0 -166 10 -100 24 20 4 34 14
40 31 6 15 10 113 10 220 0 107 -4 205 -10 220 -6 17 -20 27 -40 31 -66 14
-23 24 100 24 80 0 130 -4 130 -10z"/>
<path d="M1401 1436 c-26 -31 -5 -59 52 -71 l27 -5 -2 -213 -3 -212 -30 -3
c-41 -5 -57 -20 -53 -51 l3 -26 160 0 160 0 0 35 c0 30 -4 36 -25 38 -49 7
-50 12 -50 223 l0 199 73 0 c83 0 100 -9 117 -62 12 -39 36 -54 70 -43 23 7
26 54 7 145 l-12 55 -241 3 c-202 2 -243 0 -253 -12z m472 -20 c3 -8 9 -42 13
-75 7 -69 -7 -83 -26 -26 -20 61 -49 75 -156 75 l-94 0 0 -225 c0 -212 1 -226
20 -245 11 -11 29 -20 40 -20 11 0 20 -4 20 -10 0 -6 -50 -10 -130 -10 -80 0
-130 4 -130 10 0 6 8 10 18 10 10 0 28 7 40 16 22 15 22 19 22 239 0 220 0
224 -22 239 -12 9 -30 16 -40 16 -10 0 -18 5 -18 10 0 6 80 10 219 10 181 0
220 -2 224 -14z"/>
<path d="M3212 1438 c-28 -28 -10 -60 41 -72 l27 -6 -2 -213 -3 -212 -35 -5
c-32 -5 -35 -8 -35 -40 l0 -35 178 -3 c188 -3 233 4 287 40 58 40 75 72 75
141 0 48 -5 69 -22 93 -33 46 -102 74 -197 82 l-81 7 -3 63 c-4 75 6 90 56 94
35 3 37 5 37 38 l0 35 -155 3 c-113 2 -159 -1 -168 -10z m298 -18 c0 -5 -13
-10 -30 -10 -17 0 -39 -9 -50 -20 -18 -18 -20 -31 -18 -113 l3 -92 95 -5 c64
-4 108 -12 134 -25 104 -51 101 -190 -6 -247 -39 -20 -60 -23 -220 -26 -125
-3 -178 -1 -178 7 0 6 9 11 19 11 11 0 27 7 35 16 14 14 16 46 14 242 l-3 227
-32 15 c-18 8 -33 18 -33 23 0 4 61 7 135 7 83 0 135 -4 135 -10z"/>
<path d="M3422 1142 c-9 -6 -12 -36 -10 -113 l3 -104 49 -3 c88 -6 146 37 146
108 0 38 -26 82 -58 99 -26 13 -115 22 -130 13z m109 -47 c82 -43 41 -144 -58
-145 l-33 0 0 80 0 80 30 0 c17 0 44 -7 61 -15z"/>
<path d="M9090 1435 c-19 -23 -4 -65 23 -65 44 0 47 -13 47 -221 0 -209 -1
-214 -50 -221 -21 -2 -25 -8 -25 -38 l0 -35 205 0 c200 0 206 1 254 25 63 33
88 66 94 129 5 61 -10 102 -50 136 l-29 25 23 32 c31 44 32 124 2 164 -54 73
-94 83 -315 84 -135 0 -169 -3 -179 -15z m412 -27 c43 -19 78 -70 78 -113 0
-41 -31 -88 -70 -107 l-32 -15 47 -23 c57 -28 85 -70 85 -129 0 -60 -52 -113
-128 -130 -67 -14 -372 -15 -372 -1 0 6 9 10 20 10 11 0 29 9 40 20 19 19 20
33 20 239 0 216 0 220 -22 235 -12 9 -30 16 -40 16 -10 0 -18 5 -18 11 0 19
346 7 392 -13z"/>
<path d="M9290 1292 c0 -59 4 -103 10 -107 6 -4 34 -4 62 0 70 10 110 47 112
103 1 64 -32 93 -118 99 l-66 6 0 -101z m135 38 c17 -14 20 -53 5 -80 -9 -17
-65 -40 -97 -40 -9 0 -13 21 -13 71 l0 72 45 -5 c25 -3 52 -11 60 -18z"/>
<path d="M9302 1142 c-9 -6 -12 -36 -10 -113 l3 -104 73 0 c71 0 75 1 103 33
49 55 36 133 -29 166 -34 17 -123 28 -140 18z m108 -46 c65 -23 76 -102 19
-131 -15 -8 -46 -15 -69 -15 l-40 0 0 80 0 80 28 -1 c15 0 43 -6 62 -13z"/>
</g>
</svg>
