<svg version="1.0" xmlns="http://www.w3.org/2000/svg"
 width="1326.000000pt" height="1104.000000pt" viewBox="0 0 1326.000000 1104.000000"
 preserveAspectRatio="xMidYMid meet">

<g transform="translate(0.000000,1104.000000) scale(0.100000,-0.100000)"
fill="currentcolor" stroke="none">
<path d="M6580 10851 c0 -5 -13 -12 -30 -16 -16 -4 -30 -10 -30 -15 0 -5 -13
-11 -30 -15 -16 -4 -30 -10 -30 -15 0 -4 -11 -11 -25 -14 -14 -4 -25 -11 -25
-16 0 -6 -9 -10 -20 -10 -11 0 -20 -7 -20 -15 0 -9 -9 -15 -24 -15 -13 0 -26
-7 -30 -15 -3 -8 -17 -15 -31 -15 -16 0 -25 -6 -25 -15 0 -10 -10 -15 -30 -15
-20 0 -30 -5 -30 -15 0 -8 -7 -15 -15 -15 -8 0 -15 -4 -15 -10 0 -5 -12 -13
-27 -16 -15 -4 -34 -13 -41 -21 -7 -7 -19 -13 -27 -13 -7 0 -15 -7 -19 -15 -3
-8 -17 -15 -31 -15 -16 0 -25 -6 -25 -15 0 -8 -9 -15 -20 -15 -11 0 -20 -4
-20 -10 0 -5 -11 -12 -25 -16 -14 -3 -25 -10 -25 -14 0 -5 -13 -11 -30 -15
-16 -4 -30 -10 -30 -15 0 -5 -13 -11 -30 -15 -16 -4 -30 -11 -30 -16 0 -5 -7
-9 -15 -9 -8 0 -15 -7 -15 -15 0 -10 -10 -15 -30 -15 -20 0 -30 -5 -30 -15 0
-9 -9 -15 -25 -15 -16 0 -25 -6 -25 -15 0 -10 -10 -15 -30 -15 -20 0 -30 -5
-30 -15 0 -8 -7 -15 -15 -15 -8 0 -15 -7 -15 -15 0 -8 -9 -15 -20 -15 -11 0
-20 -7 -20 -15 0 -8 -4 -15 -10 -15 -7 0 -10 -240 -10 -700 0 -420 4 -700 9
-700 5 0 12 -13 16 -30 4 -16 13 -30 21 -30 8 0 14 -7 14 -15 0 -10 10 -15 30
-15 20 0 30 -5 30 -15 0 -10 10 -15 30 -15 20 0 30 -5 30 -15 0 -9 9 -15 25
-15 16 0 25 -6 25 -15 0 -10 10 -15 30 -15 20 0 30 -5 30 -15 0 -9 9 -15 25
-15 14 0 25 -4 25 -10 0 -5 7 -10 15 -10 9 0 18 -7 21 -15 4 -8 17 -15 30 -15
14 0 27 -6 30 -14 3 -8 16 -17 30 -20 13 -4 24 -11 24 -16 0 -6 9 -10 19 -10
11 0 26 -6 33 -13 7 -7 21 -16 31 -20 9 -3 17 -11 17 -17 0 -5 11 -10 25 -10
15 0 25 -6 25 -14 0 -8 14 -17 30 -21 17 -4 30 -10 30 -15 0 -4 11 -11 25 -14
14 -4 25 -11 25 -16 0 -6 9 -10 20 -10 11 0 20 -7 20 -15 0 -10 10 -15 30 -15
20 0 30 -5 30 -15 0 -9 9 -15 25 -15 16 0 25 -6 25 -15 0 -8 9 -15 19 -15 11
0 26 -7 35 -15 8 -8 22 -15 30 -15 9 0 16 -4 16 -10 0 -5 12 -13 27 -16 15 -4
34 -14 42 -22 17 -17 123 -12 129 6 2 7 15 12 28 12 15 0 24 6 24 15 0 10 10
15 30 15 20 0 30 5 30 15 0 8 9 15 20 15 11 0 20 7 20 15 0 9 9 15 24 15 13 0
26 7 30 15 3 8 17 15 31 15 16 0 25 6 25 15 0 10 10 15 30 15 20 0 30 5 30 15
0 9 9 15 24 15 13 0 26 7 30 15 3 8 12 15 21 15 8 0 15 4 15 10 0 5 11 12 24
16 14 3 27 12 30 20 3 8 17 14 31 14 16 0 25 6 25 15 0 8 9 15 20 15 11 0 20
4 20 10 0 5 11 12 25 16 14 3 25 10 25 14 0 5 14 11 30 15 17 4 30 10 30 15 0
5 14 11 30 15 17 4 30 11 30 16 0 5 7 9 15 9 8 0 15 7 15 15 0 10 10 15 30 15
20 0 30 5 30 15 0 9 9 15 25 15 16 0 25 6 25 15 0 10 10 15 30 15 20 0 30 5
30 15 0 10 10 15 30 15 20 0 30 5 30 15 0 8 7 15 15 15 8 0 15 7 15 15 0 8 7
15 15 15 13 0 15 86 15 715 0 629 -2 715 -15 715 -8 0 -15 7 -15 15 0 8 -7 15
-15 15 -8 0 -15 7 -15 15 0 8 -7 15 -15 15 -8 0 -15 7 -15 15 0 10 -10 15 -30
15 -20 0 -30 5 -30 15 0 9 -9 15 -24 15 -13 0 -26 7 -30 15 -3 8 -16 15 -30
15 -13 0 -26 7 -30 15 -3 8 -12 15 -21 15 -8 0 -15 5 -15 10 0 6 -9 10 -20 10
-11 0 -23 6 -26 14 -3 8 -19 18 -35 21 -16 4 -29 10 -29 15 0 4 -11 11 -25 14
-14 4 -25 11 -25 16 0 6 -9 10 -20 10 -11 0 -20 7 -20 15 0 10 -10 15 -30 15
-19 0 -30 5 -30 14 0 8 -11 17 -25 20 -14 4 -25 11 -25 16 0 6 -9 10 -19 10
-11 0 -26 7 -35 15 -8 8 -20 15 -26 15 -6 0 -13 7 -16 15 -4 8 -17 15 -30 15
-15 0 -24 6 -24 15 0 9 -9 15 -25 15 -14 0 -28 7 -31 15 -4 8 -17 15 -30 15
-15 0 -24 6 -24 15 0 8 -9 15 -20 15 -11 0 -20 7 -20 15 0 9 -9 15 -25 15 -14
0 -25 4 -25 9 0 5 -13 12 -30 16 -16 4 -30 10 -30 15 0 5 -13 11 -30 15 -16 4
-30 11 -30 16 0 5 -20 9 -45 9 -25 0 -45 -4 -45 -9z m90 -496 c0 -10 10 -15
30 -15 20 0 30 -5 30 -15 0 -9 9 -15 24 -15 13 0 26 -7 30 -15 3 -8 17 -15 31
-15 14 0 25 -4 25 -10 0 -5 7 -10 15 -10 9 0 18 -7 21 -15 4 -8 16 -15 28 -15
12 0 29 -9 39 -20 9 -11 24 -20 32 -20 8 0 15 -4 15 -9 0 -5 14 -12 30 -16 17
-4 30 -11 30 -16 0 -5 7 -9 15 -9 8 0 15 -7 15 -15 0 -10 10 -15 30 -15 19 0
30 -5 30 -14 0 -8 11 -17 25 -20 14 -4 25 -11 25 -16 0 -6 9 -10 19 -10 11 0
26 -7 35 -15 8 -8 22 -15 30 -15 9 0 16 -7 16 -15 0 -8 7 -15 15 -15 13 0 15
-51 15 -400 0 -260 4 -400 10 -400 6 0 10 -28 10 -65 0 -37 -4 -65 -10 -65 -5
0 -10 -9 -10 -20 0 -13 -7 -20 -20 -20 -11 0 -20 -4 -20 -10 0 -5 -12 -13 -27
-16 -15 -4 -34 -13 -41 -21 -7 -7 -20 -13 -28 -13 -8 0 -14 -4 -14 -9 0 -5
-13 -12 -30 -16 -16 -4 -30 -13 -30 -21 0 -9 -11 -14 -30 -14 -20 0 -30 -5
-30 -15 0 -8 -7 -15 -15 -15 -8 0 -15 -4 -15 -9 0 -5 -13 -12 -30 -16 -16 -4
-30 -11 -30 -16 0 -5 -7 -9 -15 -9 -8 0 -23 -9 -32 -20 -10 -11 -23 -20 -30
-20 -7 0 -13 -4 -13 -9 0 -5 -13 -12 -30 -16 -16 -4 -30 -10 -30 -15 0 -4 -11
-11 -25 -14 -14 -4 -25 -11 -25 -16 0 -6 -7 -10 -15 -10 -9 0 -18 -7 -21 -15
-4 -8 -17 -15 -30 -15 -15 0 -24 -6 -24 -15 0 -10 -10 -15 -30 -15 -20 0 -30
5 -30 15 0 10 -10 15 -30 15 -20 0 -30 5 -30 15 0 9 -9 15 -24 15 -13 0 -26 7
-30 15 -3 8 -12 15 -21 15 -8 0 -15 4 -15 10 0 5 -12 13 -27 16 -15 4 -34 13
-41 21 -7 7 -20 13 -28 13 -8 0 -14 5 -14 10 0 6 -7 10 -15 10 -9 0 -18 7 -21
15 -4 8 -16 15 -28 15 -12 0 -29 9 -39 20 -9 11 -24 20 -32 20 -8 0 -15 4 -15
9 0 5 -11 12 -25 15 -14 4 -25 11 -25 16 0 6 -9 10 -20 10 -11 0 -20 7 -20 15
0 10 -10 15 -30 15 -19 0 -30 5 -30 14 0 8 -11 17 -25 20 -14 4 -25 11 -25 16
0 6 -9 10 -20 10 -11 0 -20 7 -20 15 0 8 -7 15 -15 15 -13 0 -15 59 -15 470 0
463 0 470 20 470 11 0 20 4 20 10 0 5 11 12 24 16 14 3 27 12 30 20 3 8 17 14
31 14 16 0 25 6 25 15 0 8 9 15 20 15 11 0 20 4 20 10 0 5 11 12 25 16 14 3
25 10 25 14 0 5 14 11 30 15 17 4 30 11 30 16 0 5 7 9 15 9 8 0 23 9 32 20 10
11 27 20 39 20 12 0 24 7 28 15 3 8 12 15 21 15 8 0 15 4 15 9 0 5 11 12 25
15 14 4 25 11 25 16 0 6 9 10 19 10 11 0 26 6 33 13 7 8 26 17 41 21 15 3 27
11 27 16 0 6 7 10 15 10 8 0 15 7 15 15 0 11 12 15 45 15 33 0 45 -4 45 -15z"/>
<path d="M7947 9572 c-21 -4 -23 -22 -2 -22 8 0 15 -7 15 -15 0 -9 9 -15 24
-15 13 0 26 -7 30 -15 3 -8 16 -15 30 -15 13 0 26 -7 30 -15 3 -8 12 -15 21
-15 8 0 15 -4 15 -10 0 -5 12 -13 27 -16 15 -4 34 -13 41 -21 7 -7 20 -13 28
-13 8 0 14 -4 14 -9 0 -5 14 -12 30 -16 17 -4 30 -11 30 -16 0 -5 7 -9 15 -9
8 0 15 -7 15 -15 0 -10 10 -15 30 -15 20 0 30 -5 30 -15 0 -10 10 -15 30 -15
19 0 30 -5 30 -14 0 -8 11 -17 25 -20 14 -4 25 -11 25 -16 0 -6 9 -10 19 -10
11 0 26 -7 35 -15 8 -8 22 -15 30 -15 9 0 16 -7 16 -15 0 -9 9 -15 25 -15 16
0 25 -6 25 -15 0 -10 10 -15 30 -15 20 0 30 -5 30 -15 0 -8 7 -15 15 -15 8 0
15 -7 15 -15 0 -10 10 -15 30 -15 17 0 30 -4 30 -10 0 -5 12 -13 27 -16 15 -4
34 -13 41 -21 7 -7 20 -13 28 -13 8 0 14 -4 14 -9 0 -5 14 -12 30 -16 17 -4
30 -11 30 -16 0 -5 7 -9 15 -9 9 0 18 -7 21 -15 4 -8 16 -15 28 -15 12 0 29
-9 39 -20 9 -11 24 -20 32 -20 8 0 15 -4 15 -9 0 -5 14 -12 30 -16 17 -4 30
-11 30 -16 0 -5 7 -9 15 -9 8 0 15 -7 15 -15 0 -10 10 -15 30 -15 20 0 30 -5
30 -15 0 -9 9 -15 25 -15 16 0 25 -6 25 -15 0 -8 9 -15 19 -15 11 0 26 -7 35
-15 8 -8 22 -15 30 -15 9 0 16 -7 16 -15 0 -10 10 -15 30 -15 20 0 30 -5 30
-15 0 -9 9 -15 25 -15 16 0 25 -6 25 -15 0 -10 10 -15 30 -15 20 0 30 -5 30
-15 0 -8 7 -15 15 -15 8 0 15 -4 15 -10 0 -5 11 -10 25 -10 14 0 28 -7 31 -15
4 -8 12 -15 20 -15 8 0 14 -9 14 -20 0 -11 -7 -20 -15 -20 -8 0 -15 -4 -15 -9
0 -5 -13 -12 -30 -16 -16 -4 -30 -13 -30 -21 0 -9 -11 -14 -30 -14 -20 0 -30
-5 -30 -15 0 -8 -7 -15 -15 -15 -8 0 -15 -4 -15 -9 0 -5 -13 -12 -30 -16 -16
-4 -30 -11 -30 -16 0 -5 -7 -9 -15 -9 -8 0 -23 -9 -32 -20 -10 -11 -28 -20
-40 -20 -13 0 -23 -4 -23 -10 0 -5 -7 -10 -15 -10 -9 0 -18 -7 -21 -15 -4 -8
-17 -15 -30 -15 -14 0 -27 -7 -30 -15 -4 -8 -17 -15 -30 -15 -15 0 -24 -6 -24
-15 0 -10 -10 -15 -30 -15 -20 0 -30 -5 -30 -15 0 -9 -9 -15 -24 -15 -13 0
-26 -7 -30 -15 -3 -8 -12 -15 -21 -15 -8 0 -15 -4 -15 -10 0 -5 -12 -13 -27
-16 -15 -4 -34 -13 -41 -21 -7 -7 -20 -13 -28 -13 -8 0 -14 -7 -14 -15 0 -10
-10 -15 -30 -15 -20 0 -30 -5 -30 -15 0 -8 -9 -15 -20 -15 -11 0 -20 -4 -20
-10 0 -5 -11 -12 -25 -16 -14 -3 -25 -10 -25 -14 0 -5 -13 -11 -30 -15 -16 -4
-30 -13 -30 -21 0 -8 -10 -14 -24 -14 -13 0 -26 -7 -30 -15 -3 -8 -16 -15 -30
-15 -13 0 -26 -7 -30 -15 -3 -8 -12 -15 -21 -15 -8 0 -15 -4 -15 -10 0 -5 -11
-10 -25 -10 -14 0 -28 -7 -31 -15 -4 -8 -16 -15 -29 -15 -13 0 -25 -7 -29 -15
-3 -8 -17 -15 -31 -15 -16 0 -25 -6 -25 -15 0 -10 -10 -15 -30 -15 -20 0 -30
-5 -30 -15 0 -8 -7 -15 -15 -15 -8 0 -15 -4 -15 -9 0 -5 -13 -12 -30 -16 -16
-4 -30 -11 -30 -16 0 -5 -11 -11 -24 -15 -14 -3 -27 -12 -30 -20 -3 -8 -17
-14 -31 -14 -16 0 -25 -6 -25 -15 0 -8 -7 -15 -16 -15 -8 0 -22 -7 -30 -15 -9
-8 -24 -15 -35 -15 -10 0 -19 -4 -19 -10 0 -5 -11 -12 -25 -16 -14 -3 -25 -12
-25 -20 0 -9 -11 -14 -30 -14 -20 0 -30 -5 -30 -15 0 -8 -7 -15 -15 -15 -8 0
-15 -4 -15 -9 0 -5 -13 -12 -30 -16 -16 -4 -30 -11 -30 -16 0 -5 -6 -9 -14 -9
-8 0 -21 -6 -28 -13 -7 -8 -26 -17 -41 -21 -15 -3 -27 -11 -27 -16 0 -6 -9
-10 -20 -10 -11 0 -20 -7 -20 -15 0 -10 -10 -15 -30 -15 -20 0 -30 -5 -30 -15
0 -9 -9 -15 -25 -15 -16 0 -25 -6 -25 -15 0 -10 -10 -15 -30 -15 -20 0 -30 -5
-30 -15 0 -10 -10 -15 -30 -15 -20 0 -30 -5 -30 -15 0 -8 -7 -15 -15 -15 -8 0
-15 -4 -15 -9 0 -5 -12 -12 -26 -15 -15 -4 -33 -14 -41 -21 -8 -8 -23 -15 -34
-15 -10 0 -19 -4 -19 -10 0 -5 -11 -12 -24 -16 -14 -3 -27 -12 -30 -20 -3 -8
-16 -14 -30 -14 -13 0 -26 -7 -30 -15 -3 -8 -12 -15 -21 -15 -8 0 -15 -4 -15
-10 0 -5 -11 -12 -25 -16 -14 -3 -25 -10 -25 -14 0 -5 -13 -11 -30 -15 -16 -4
-30 -10 -30 -15 0 -4 -11 -11 -25 -14 -14 -4 -25 -11 -25 -16 0 -6 -9 -10 -20
-10 -11 0 -20 -4 -20 -10 0 -5 -12 -13 -27 -16 -15 -4 -34 -13 -41 -21 -7 -7
-22 -13 -33 -13 -10 0 -19 -7 -19 -15 0 -9 -9 -15 -25 -15 -16 0 -25 -6 -25
-15 0 -8 -9 -15 -20 -15 -11 0 -20 -4 -20 -10 0 -5 -11 -12 -25 -16 -14 -3
-25 -10 -25 -14 0 -5 -13 -11 -30 -15 -16 -4 -30 -11 -30 -16 0 -5 -13 -9 -30
-9 -16 0 -30 5 -30 10 0 6 -7 10 -15 10 -8 0 -15 7 -15 15 0 10 -10 15 -30 15
-19 0 -30 5 -30 14 0 8 -11 17 -25 20 -14 4 -25 11 -25 16 0 6 -9 10 -19 10
-11 0 -26 7 -35 15 -8 8 -22 15 -30 15 -9 0 -16 7 -16 15 0 9 -9 15 -25 15
-16 0 -25 6 -25 15 0 10 -10 15 -30 15 -20 0 -30 5 -30 15 0 9 -9 15 -24 15
-13 0 -26 7 -30 15 -3 8 -12 15 -21 15 -8 0 -15 4 -15 9 0 5 -13 12 -30 16
-16 4 -30 10 -30 15 0 4 -11 11 -25 14 -14 4 -25 11 -25 16 0 6 -9 10 -20 10
-11 0 -20 7 -20 15 0 9 -9 15 -25 15 -14 0 -28 6 -31 14 -3 8 -16 17 -30 20
-13 4 -24 10 -24 15 0 5 -13 12 -30 16 -16 4 -30 11 -30 16 0 5 -7 9 -15 9 -8
0 -15 7 -15 15 0 10 -10 15 -30 15 -20 0 -30 5 -30 15 0 9 -9 15 -25 15 -14 0
-28 6 -31 14 -3 8 -16 17 -30 20 -13 4 -24 11 -24 16 0 6 -9 10 -20 10 -11 0
-20 7 -20 15 0 10 -10 15 -30 15 -20 0 -30 5 -30 15 0 9 -9 15 -24 15 -13 0
-26 7 -30 15 -3 8 -17 15 -31 15 -14 0 -25 5 -25 10 0 6 -7 10 -15 10 -8 0
-15 7 -15 15 0 10 -10 15 -30 15 -19 0 -30 5 -30 14 0 8 -11 17 -25 20 -14 4
-25 11 -25 16 0 6 -9 10 -19 10 -11 0 -26 6 -33 13 -7 7 -21 16 -30 20 -10 3
-18 11 -18 17 0 5 -13 10 -30 10 -19 0 -30 5 -30 14 0 8 -11 17 -25 20 -14 4
-25 11 -25 16 0 6 -9 10 -19 10 -11 0 -26 6 -33 13 -7 7 -21 16 -30 20 -10 3
-18 11 -18 17 0 5 -11 10 -25 10 -16 0 -25 6 -25 15 0 10 -10 15 -30 15 -20 0
-30 5 -30 15 0 9 -9 15 -24 15 -13 0 -26 7 -30 15 -3 8 -10 15 -16 15 -6 0
-18 7 -26 15 -9 8 -24 15 -35 15 -10 0 -19 4 -19 9 0 5 -14 12 -30 16 -16 4
-30 11 -30 16 0 5 -11 11 -25 15 -14 3 -25 10 -25 14 0 5 -14 11 -30 15 -16 4
-30 10 -30 15 0 4 -11 11 -25 14 -14 4 -25 11 -25 16 0 6 -9 10 -20 10 -11 0
-20 7 -20 15 0 10 -10 15 -30 15 -19 0 -30 5 -30 14 0 8 -11 17 -25 20 -14 4
-25 11 -25 16 0 6 -9 10 -19 10 -11 0 -26 7 -35 15 -8 8 -22 15 -30 15 -9 0
-16 7 -16 15 0 9 -9 15 -25 15 -14 0 -28 7 -31 15 -4 8 -17 15 -30 15 -15 0
-24 6 -24 15 0 9 -9 15 -25 15 -14 0 -25 5 -25 10 0 6 -8 14 -17 17 -10 4 -24
13 -31 20 -7 7 -22 13 -33 13 -10 0 -19 4 -19 10 0 5 -11 12 -25 16 -14 3 -25
10 -25 15 0 5 -7 9 -15 9 -9 0 -18 7 -21 15 -4 8 -16 15 -28 15 -12 0 -29 9
-39 20 -9 11 -24 20 -32 20 -8 0 -15 4 -15 9 0 5 -14 12 -30 16 -17 4 -30 11
-30 16 0 5 -7 9 -15 9 -8 0 -15 7 -15 15 0 10 -10 15 -30 15 -19 0 -30 5 -30
14 0 8 -11 17 -25 20 -23 6 -36 26 -16 26 5 0 11 9 14 20 3 11 12 20 21 20 9
0 16 5 16 10 0 6 11 10 25 10 16 0 25 6 25 15 0 9 9 15 25 15 16 0 25 6 25 15
0 8 9 15 20 15 11 0 20 4 20 10 0 5 12 13 27 16 15 4 34 13 41 21 7 7 22 13
33 13 10 0 19 7 19 15 0 9 9 15 24 15 13 0 26 7 30 15 3 8 17 15 31 15 16 0
25 6 25 15 0 10 10 15 30 15 20 0 30 5 30 15 0 8 9 15 20 15 11 0 20 4 20 10
0 5 11 12 25 16 14 3 25 10 25 15 0 5 7 9 15 9 8 0 23 9 32 20 10 11 27 20 39
20 12 0 24 7 28 15 3 8 12 15 21 15 8 0 15 4 15 9 0 5 14 12 30 16 17 4 30 10
30 15 0 4 11 11 25 14 14 4 25 11 25 16 0 6 9 10 19 10 11 0 26 7 35 15 8 8
19 15 24 15 6 0 12 7 16 15 3 8 17 15 31 15 16 0 25 6 25 15 0 9 9 15 25 15
16 0 25 6 25 15 0 10 10 15 30 15 20 0 30 5 30 15 0 10 10 15 30 15 20 0 30 5
30 15 0 8 9 15 20 15 11 0 20 4 20 10 0 5 12 13 27 16 15 4 34 13 41 21 7 7
20 13 28 13 8 0 14 4 14 9 0 5 14 12 30 16 17 4 30 13 30 21 0 8 7 14 15 14 8
0 15 4 15 9 0 5 14 12 30 16 16 4 30 10 30 15 0 4 11 11 25 14 14 4 25 10 25
15 0 5 13 12 30 16 16 4 30 11 30 16 0 5 7 9 15 9 9 0 18 7 21 15 4 8 17 15
30 15 14 0 27 7 30 15 4 8 17 15 30 15 15 0 24 6 24 15 0 8 7 15 15 15 8 0 15
5 15 10 0 7 -152 10 -435 10 -283 0 -435 -3 -435 -10 0 -5 -9 -10 -20 -10 -11
0 -20 -7 -20 -15 0 -10 -10 -15 -30 -15 -20 0 -30 -5 -30 -15 0 -9 -9 -15 -25
-15 -16 0 -25 -6 -25 -15 0 -10 -10 -15 -30 -15 -20 0 -30 -5 -30 -15 0 -8 -9
-15 -20 -15 -11 0 -20 -4 -20 -10 0 -5 -11 -12 -25 -16 -14 -3 -25 -10 -25
-14 0 -5 -14 -11 -30 -15 -16 -4 -30 -11 -30 -16 0 -5 -11 -11 -24 -15 -14 -3
-27 -12 -30 -20 -3 -8 -17 -14 -31 -14 -16 0 -25 -6 -25 -15 0 -8 -9 -15 -20
-15 -11 0 -20 -4 -20 -10 0 -5 -12 -13 -27 -16 -15 -4 -34 -13 -41 -21 -7 -7
-19 -13 -27 -13 -7 0 -15 -7 -19 -15 -3 -8 -17 -15 -31 -15 -14 0 -25 -4 -25
-9 0 -5 -14 -12 -30 -16 -17 -4 -30 -11 -30 -16 0 -5 -7 -9 -15 -9 -8 0 -15
-7 -15 -15 0 -10 -10 -15 -30 -15 -20 0 -30 -5 -30 -15 0 -9 -9 -15 -25 -15
-16 0 -25 -6 -25 -15 0 -10 -10 -15 -30 -15 -20 0 -30 -5 -30 -15 0 -8 -9 -15
-20 -15 -11 0 -20 -4 -20 -10 0 -5 -12 -13 -27 -16 -15 -4 -34 -13 -41 -21 -7
-7 -20 -13 -28 -13 -8 0 -14 -4 -14 -9 0 -5 -14 -12 -30 -16 -17 -4 -30 -13
-30 -21 0 -8 -10 -14 -24 -14 -13 0 -26 -7 -30 -15 -3 -8 -12 -15 -21 -15 -8
0 -15 -4 -15 -10 0 -5 -7 -10 -15 -10 -8 0 -23 -9 -32 -20 -10 -11 -27 -20
-39 -20 -12 0 -24 -7 -28 -15 -3 -8 -12 -15 -21 -15 -8 0 -15 -4 -15 -9 0 -5
-13 -12 -30 -16 -17 -4 -30 -10 -30 -15 0 -4 -11 -11 -25 -14 -14 -4 -25 -11
-25 -16 0 -6 -9 -10 -19 -10 -11 0 -26 -7 -35 -15 -8 -8 -24 -15 -35 -15 -12
0 -21 -6 -21 -15 0 -8 -9 -15 -20 -15 -11 0 -20 -7 -20 -15 0 -10 -10 -15 -30
-15 -20 0 -30 -5 -30 -15 0 -9 -9 -15 -25 -15 -16 0 -25 -6 -25 -15 0 -10 -10
-15 -30 -15 -20 0 -30 -5 -30 -15 0 -8 -9 -15 -20 -15 -11 0 -20 -4 -20 -10 0
-5 -11 -12 -25 -16 -14 -3 -25 -10 -25 -14 0 -5 -13 -11 -30 -15 -16 -4 -30
-13 -30 -21 0 -8 -10 -14 -24 -14 -13 0 -26 -7 -30 -15 -3 -8 -12 -15 -21 -15
-8 0 -15 -4 -15 -9 0 -5 -14 -12 -30 -16 -17 -4 -30 -10 -30 -15 0 -4 -11 -11
-25 -14 -14 -4 -25 -10 -25 -15 0 -5 -13 -12 -30 -16 -17 -4 -30 -11 -30 -16
0 -5 -7 -9 -15 -9 -9 0 -18 -7 -21 -15 -4 -8 -17 -15 -30 -15 -15 0 -24 -6
-24 -15 0 -10 -10 -15 -30 -15 -20 0 -30 -5 -30 -15 0 -8 -7 -15 -15 -15 -8 0
-15 -7 -15 -15 0 -8 -4 -15 -10 -15 -5 0 -19 -8 -30 -17 -20 -17 -20 -29 -20
-675 l0 -658 -27 6 c-16 4 -30 11 -31 16 -2 4 -10 8 -18 8 -8 0 -14 7 -14 15
0 10 -10 15 -30 15 -20 0 -30 5 -30 15 0 9 -9 15 -25 15 -16 0 -25 6 -25 15 0
8 -9 15 -19 15 -11 0 -26 7 -35 15 -8 8 -22 15 -30 15 -9 0 -16 7 -16 15 0 9
-9 15 -25 15 -16 0 -25 6 -25 15 0 10 -10 15 -30 15 -20 0 -30 5 -30 15 0 10
-10 15 -29 15 -16 0 -31 5 -33 12 -6 16 -140 17 -145 1 -3 -7 -16 -13 -29 -13
-14 0 -27 -7 -30 -15 -4 -8 -17 -15 -30 -15 -15 0 -24 -6 -24 -15 0 -10 -10
-15 -30 -15 -20 0 -30 -5 -30 -15 0 -9 -9 -15 -25 -15 -16 0 -25 -6 -25 -15 0
-8 -9 -15 -20 -15 -11 0 -20 -4 -20 -10 0 -5 -12 -13 -27 -16 -15 -4 -34 -13
-41 -21 -7 -7 -20 -13 -28 -13 -8 0 -14 -7 -14 -15 0 -10 -10 -15 -30 -15 -20
0 -30 -5 -30 -15 0 -8 -9 -15 -20 -15 -11 0 -20 -4 -20 -10 0 -5 -11 -12 -25
-16 -14 -3 -25 -10 -25 -14 0 -5 -14 -11 -30 -15 -17 -4 -30 -11 -30 -16 0 -5
-7 -9 -15 -9 -8 0 -23 -9 -32 -20 -10 -11 -27 -20 -39 -20 -12 0 -24 -7 -28
-15 -3 -8 -12 -15 -21 -15 -8 0 -15 -4 -15 -9 0 -5 -14 -12 -30 -16 -17 -4
-30 -11 -30 -16 0 -5 -11 -9 -25 -9 -16 0 -25 -6 -25 -15 0 -10 -10 -15 -30
-15 -20 0 -30 -5 -30 -15 0 -8 -9 -15 -20 -15 -11 0 -20 -4 -20 -9 0 -5 -10
-13 -22 -17 -12 -3 -28 -13 -36 -20 -7 -8 -20 -14 -28 -14 -8 0 -17 -13 -20
-30 -4 -16 -10 -30 -15 -30 -5 0 -9 -307 -9 -700 0 -393 4 -700 9 -700 5 0 11
-13 15 -30 4 -24 11 -30 31 -30 16 0 25 -6 25 -15 0 -8 7 -15 15 -15 8 0 15
-7 15 -15 0 -10 10 -15 30 -15 20 0 30 -5 30 -15 0 -10 10 -15 30 -15 17 0 30
-4 30 -10 0 -5 11 -12 25 -16 14 -3 25 -10 25 -15 0 -5 7 -9 15 -9 9 0 18 -7
21 -15 4 -8 17 -15 30 -15 14 0 27 -7 30 -15 4 -8 17 -15 30 -15 14 0 24 -6
24 -14 0 -8 14 -17 30 -21 17 -4 30 -11 30 -16 0 -5 7 -9 15 -9 8 0 15 -7 15
-15 0 -10 10 -15 30 -15 19 0 30 -5 30 -14 0 -8 11 -17 25 -20 14 -4 25 -11
25 -16 0 -6 9 -10 19 -10 11 0 26 -7 35 -15 8 -8 22 -15 30 -15 9 0 16 -7 16
-15 0 -9 9 -15 25 -15 16 0 25 -6 25 -15 0 -10 10 -15 30 -15 20 0 30 -5 30
-15 0 -10 10 -15 30 -15 20 0 30 -5 30 -15 0 -8 7 -15 15 -15 8 0 15 -4 15 -9
0 -5 14 -12 30 -16 17 -4 30 -11 30 -16 0 -5 6 -9 14 -9 8 0 21 -6 28 -14 8
-7 29 -17 46 -21 18 -3 32 -11 32 -16 0 -15 50 -10 66 6 9 8 27 15 40 15 14 0
35 11 48 25 14 14 34 25 50 25 16 0 26 5 26 15 0 9 9 15 25 15 16 0 25 6 25
15 0 10 10 15 30 15 20 0 30 5 30 15 0 10 10 15 30 15 20 0 30 5 30 15 0 8 9
15 20 15 11 0 20 4 20 9 0 5 10 13 23 17 12 4 25 11 28 16 3 5 25 12 48 15
l41 6 0 -882 c0 -776 2 -881 15 -881 8 0 15 -7 15 -15 0 -8 7 -15 15 -15 8 0
15 -4 15 -10 0 -5 12 -13 27 -16 15 -4 34 -13 41 -21 7 -7 22 -13 33 -13 10 0
19 -4 19 -10 0 -5 11 -12 25 -16 14 -3 25 -10 25 -15 0 -5 7 -9 15 -9 9 0 18
-7 21 -15 4 -8 17 -15 30 -15 14 0 27 -7 30 -15 4 -8 16 -15 28 -15 12 0 29
-9 39 -20 9 -11 24 -20 32 -20 8 0 15 -4 15 -9 0 -5 14 -12 30 -16 17 -4 30
-11 30 -16 0 -5 7 -9 15 -9 8 0 15 -7 15 -15 0 -10 10 -15 30 -15 20 0 30 -5
30 -15 0 -9 9 -15 25 -15 14 0 28 -6 31 -14 3 -8 16 -17 30 -20 13 -4 24 -11
24 -16 0 -6 9 -10 19 -10 11 0 26 -7 35 -15 8 -8 22 -15 30 -15 9 0 16 -7 16
-15 0 -9 9 -15 25 -15 16 0 25 -6 25 -15 0 -10 10 -15 26 -15 16 0 36 -11 50
-25 13 -14 32 -25 44 -25 11 0 23 -6 26 -14 3 -8 19 -18 35 -21 16 -4 29 -10
29 -15 0 -4 11 -11 25 -14 14 -4 25 -11 25 -16 0 -6 9 -10 19 -10 11 0 26 -6
33 -13 7 -7 21 -16 31 -20 9 -3 17 -11 17 -17 0 -5 11 -10 25 -10 15 0 25 -6
25 -14 0 -8 13 -17 30 -21 16 -4 30 -10 30 -15 0 -4 11 -11 25 -14 14 -4 25
-11 25 -16 0 -6 9 -10 20 -10 11 0 20 -7 20 -15 0 -10 10 -15 30 -15 20 0 30
-5 30 -15 0 -9 9 -15 25 -15 16 0 25 -6 25 -15 0 -10 10 -15 30 -15 20 0 30
-5 30 -15 0 -8 9 -15 20 -15 11 0 20 -4 20 -10 0 -5 11 -12 25 -16 14 -3 25
-10 25 -14 0 -5 13 -11 30 -15 16 -4 30 -10 30 -15 0 -4 11 -11 25 -14 14 -4
25 -11 25 -16 0 -6 9 -10 20 -10 11 0 20 -7 20 -15 0 -10 10 -15 30 -15 19 0
30 -5 30 -14 0 -8 11 -17 25 -20 14 -4 25 -11 25 -16 0 -6 9 -10 19 -10 11 0
26 -6 33 -13 7 -8 26 -17 41 -21 15 -3 27 -11 27 -16 0 -6 7 -10 15 -10 9 0
18 -7 21 -15 4 -8 17 -15 30 -15 15 0 24 -6 24 -15 0 -10 10 -15 30 -15 20 0
30 -5 30 -15 0 -9 9 -15 25 -15 16 0 25 -6 25 -15 0 -8 9 -15 20 -15 11 0 20
-7 20 -15 0 -10 10 -15 30 -15 20 0 30 -5 30 -15 0 -9 9 -15 25 -15 14 0 25
-4 25 -9 0 -5 14 -12 30 -16 17 -4 30 -11 30 -16 0 -5 7 -9 15 -9 9 0 18 -7
21 -15 4 -8 17 -15 30 -15 14 0 24 -6 24 -14 0 -8 14 -17 30 -21 17 -4 30 -10
30 -15 0 -4 11 -11 25 -14 14 -4 25 -11 25 -16 0 -6 9 -10 20 -10 11 0 20 -7
20 -15 0 -10 10 -15 30 -15 20 0 30 -5 30 -15 0 -9 9 -15 25 -15 16 0 25 -6
25 -15 0 -8 9 -15 19 -15 11 0 26 -6 33 -13 7 -8 26 -17 41 -21 15 -3 27 -11
27 -16 0 -6 7 -10 15 -10 8 0 15 -7 15 -15 0 -10 10 -15 30 -15 20 0 30 -5 30
-15 0 -10 10 -15 30 -15 17 0 30 -4 30 -10 0 -5 11 -12 25 -16 14 -3 25 -10
25 -15 0 -5 7 -9 15 -9 9 0 18 -7 21 -15 4 -8 16 -15 28 -15 12 0 29 -9 39
-20 9 -11 24 -20 32 -20 8 0 15 -4 15 -9 0 -5 14 -12 30 -16 17 -4 30 -11 30
-16 0 -5 7 -9 15 -9 9 0 18 -7 21 -15 4 -8 17 -15 30 -15 14 0 24 -6 24 -14 0
-8 13 -17 30 -21 17 -4 30 -10 30 -15 0 -4 11 -11 25 -14 14 -4 25 -11 25 -16
0 -6 9 -10 19 -10 11 0 26 -7 35 -15 8 -8 22 -15 30 -15 9 0 16 -7 16 -15 0
-10 10 -15 30 -15 20 0 30 -5 30 -15 0 -9 9 -15 25 -15 16 0 25 -6 25 -15 0
-10 10 -15 30 -15 20 0 30 -5 30 -15 0 -10 10 -15 26 -15 16 0 36 -11 50 -25
13 -14 32 -25 44 -25 11 0 23 -7 26 -15 4 -8 17 -15 30 -15 14 0 27 -6 30 -14
3 -8 16 -17 30 -20 13 -4 24 -11 24 -16 0 -6 9 -10 19 -10 11 0 26 -6 33 -13
7 -7 21 -16 31 -20 9 -3 17 -11 17 -17 0 -5 11 -10 25 -10 15 0 25 -6 25 -14
0 -8 14 -17 30 -21 17 -4 30 -10 30 -15 0 -4 11 -11 25 -14 14 -4 25 -11 25
-16 0 -6 9 -10 19 -10 11 0 26 -7 35 -15 8 -8 22 -15 30 -15 9 0 16 -7 16 -15
0 -10 10 -15 30 -15 20 0 30 -5 30 -15 0 -9 9 -15 25 -15 16 0 25 -6 25 -15 0
-10 10 -15 30 -15 17 0 30 -4 30 -10 0 -5 25 -10 55 -10 30 0 55 5 55 10 0 6
9 10 20 10 11 0 20 7 20 15 0 10 10 15 30 15 20 0 30 5 30 15 0 9 9 15 25 15
16 0 25 6 25 15 0 10 10 15 30 15 20 0 30 5 30 15 0 10 10 15 30 15 20 0 30 5
30 15 0 8 7 15 15 15 8 0 15 4 15 9 0 5 14 12 30 16 17 4 30 11 30 16 0 5 11
11 25 15 14 3 25 10 25 15 0 5 8 13 18 16 9 4 23 13 30 20 7 7 22 13 33 13 10
0 19 4 19 10 0 5 11 12 24 16 14 3 27 12 30 20 3 8 16 14 30 14 13 0 26 7 30
15 3 8 12 15 21 15 8 0 15 4 15 9 0 5 11 12 25 15 14 4 25 11 25 16 0 6 11 10
25 10 14 0 28 7 31 15 4 8 17 15 30 15 15 0 24 6 24 15 0 8 7 15 16 15 8 0 22
7 30 15 9 8 24 15 35 15 10 0 19 7 19 15 0 9 9 15 25 15 16 0 25 6 25 15 0 10
10 15 30 15 20 0 30 5 30 15 0 10 10 15 30 15 20 0 30 5 30 15 0 8 7 15 15 15
8 0 15 4 15 9 0 5 14 12 30 16 17 4 30 10 30 15 0 5 14 11 30 15 17 4 30 11
30 16 0 5 7 9 15 9 8 0 23 9 32 20 10 11 27 20 39 20 12 0 24 7 28 15 3 8 12
15 21 15 8 0 15 4 15 9 0 5 14 12 30 16 17 4 30 10 30 15 0 4 11 11 25 14 14
4 25 11 25 16 0 6 14 10 30 10 20 0 30 5 30 15 0 8 5 15 11 15 6 0 17 7 25 15
9 8 24 15 35 15 10 0 19 7 19 15 0 10 10 15 30 15 20 0 30 5 30 15 0 9 9 15
25 15 16 0 25 6 25 15 0 10 10 15 30 15 20 0 30 5 30 15 0 8 9 15 20 15 11 0
20 4 20 10 0 5 11 12 25 16 14 3 25 10 25 14 0 5 14 11 30 15 17 4 30 13 30
21 0 8 10 14 24 14 13 0 26 7 30 15 3 8 12 15 21 15 8 0 15 4 15 9 0 5 14 12
30 16 17 4 30 10 30 15 0 5 14 11 30 15 17 4 30 10 30 15 0 4 11 11 25 14 14
4 25 11 25 16 0 6 9 10 20 10 11 0 20 7 20 15 0 10 10 15 30 15 20 0 30 5 30
15 0 9 9 15 25 15 16 0 25 6 25 15 0 10 10 15 30 15 20 0 30 5 30 15 0 9 9 15
25 15 16 0 25 6 25 15 0 8 9 15 20 15 11 0 20 4 20 10 0 5 12 13 27 16 15 4
34 13 41 21 7 7 20 13 28 13 8 0 14 4 14 9 0 5 14 12 30 16 17 4 30 13 30 21
0 9 11 14 30 14 20 0 30 5 30 15 0 8 7 15 15 15 8 0 15 4 15 9 0 5 14 12 30
16 17 4 30 10 30 15 0 4 11 11 25 14 14 4 25 11 25 16 0 6 9 10 19 10 11 0 26
7 35 15 8 8 22 15 30 15 9 0 16 7 16 15 0 10 10 15 30 15 20 0 30 5 30 15 0 9
9 15 25 15 16 0 25 6 25 15 0 10 10 15 30 15 20 0 30 5 30 15 0 8 7 15 15 15
8 0 15 4 15 9 0 5 12 12 26 15 15 4 33 14 41 21 8 8 23 15 34 15 10 0 19 4 19
10 0 5 11 12 24 16 14 3 27 12 30 20 3 8 17 14 31 14 16 0 25 6 25 15 0 8 9
15 20 15 11 0 20 4 20 10 0 5 12 13 27 16 15 4 34 13 41 21 7 7 19 13 27 13 7
0 15 7 19 15 3 8 17 15 31 15 14 0 25 5 25 10 0 6 7 10 15 10 8 0 15 7 15 15
0 10 10 15 30 15 20 0 30 5 30 15 0 10 10 15 30 15 20 0 30 5 30 15 0 9 9 15
25 15 16 0 25 6 25 15 0 10 10 15 30 15 20 0 30 5 30 15 0 8 9 15 20 15 11 0
20 4 20 10 0 5 11 12 25 16 14 3 25 10 25 14 0 5 14 11 30 15 17 4 30 13 30
21 0 8 10 14 24 14 13 0 26 7 30 15 3 8 12 15 21 15 8 0 15 4 15 9 0 5 12 12
26 15 15 4 33 14 41 21 8 8 23 15 34 15 10 0 19 4 19 10 0 5 11 12 24 16 14 3
27 12 30 20 3 8 16 14 30 14 13 0 26 7 30 15 3 8 12 15 21 15 8 0 15 5 15 10
0 6 11 10 25 10 16 0 25 6 25 15 0 10 10 15 30 15 20 0 30 5 30 15 0 8 7 15
15 15 8 0 15 7 15 15 0 8 7 15 15 15 13 0 15 104 15 880 l0 880 30 0 c20 0 30
-5 30 -15 0 -9 9 -15 25 -15 14 0 28 -7 31 -15 4 -8 17 -15 30 -15 15 0 24 -6
24 -15 0 -10 10 -15 30 -15 20 0 30 -5 30 -15 0 -10 10 -15 30 -15 20 0 30 -5
30 -15 0 -8 9 -15 20 -15 11 0 20 -4 20 -10 0 -5 11 -12 25 -16 14 -3 25 -10
25 -14 0 -5 14 -11 30 -15 17 -4 30 -10 30 -15 0 -5 14 -11 30 -15 17 -4 30
-11 30 -16 0 -5 11 -9 25 -9 14 0 25 4 25 9 0 6 20 13 44 16 25 4 47 13 50 21
3 8 12 14 21 14 8 0 15 5 15 10 0 6 11 10 25 10 16 0 25 6 25 15 0 9 9 15 25
15 14 0 28 7 31 15 4 8 17 15 30 15 15 0 24 6 24 15 0 8 7 15 16 15 8 0 22 7
30 15 9 8 24 15 35 15 10 0 19 7 19 15 0 9 9 15 24 15 13 0 26 7 30 15 3 8 17
15 31 15 16 0 25 6 25 15 0 8 9 15 20 15 11 0 20 4 20 10 0 5 11 12 25 16 14
3 25 10 25 14 0 5 14 11 30 15 17 4 30 13 30 21 0 8 10 14 24 14 13 0 26 7 30
15 3 8 16 15 30 15 13 0 26 7 30 15 3 8 12 15 21 15 8 0 15 4 15 9 0 5 11 12
25 15 14 4 25 11 25 16 0 6 9 10 19 10 11 0 26 6 33 13 7 8 26 17 41 21 15 3
27 11 27 16 0 6 9 10 20 10 11 0 20 4 20 10 0 5 11 12 25 16 14 3 25 12 25 20
0 8 10 14 24 14 16 0 26 7 30 23 3 12 6 346 6 742 0 710 0 721 -20 738 -11 9
-25 17 -30 17 -6 0 -10 6 -10 14 0 8 -11 17 -25 20 -14 4 -25 11 -25 16 0 6
-9 10 -20 10 -11 0 -20 7 -20 15 0 10 -10 15 -30 15 -20 0 -30 5 -30 15 0 9
-9 15 -25 15 -14 0 -25 4 -25 9 0 5 -13 12 -30 16 -16 4 -30 11 -30 16 0 5 -7
9 -15 9 -9 0 -18 7 -21 15 -4 8 -17 15 -30 15 -14 0 -27 7 -30 15 -4 8 -17 15
-30 15 -14 0 -24 6 -24 14 0 8 -13 17 -30 21 -16 4 -30 10 -30 15 0 4 -11 11
-25 14 -14 4 -25 11 -25 16 0 6 -9 10 -20 10 -11 0 -20 7 -20 15 0 10 -10 15
-30 15 -20 0 -30 5 -30 15 0 9 -9 15 -25 15 -16 0 -25 6 -25 15 0 8 -9 15 -19
15 -11 0 -26 7 -35 15 -8 8 -22 15 -30 15 -9 0 -16 7 -16 15 0 9 -9 15 -25 15
-16 0 -25 6 -25 15 0 10 -10 15 -30 15 -20 0 -30 5 -30 15 0 8 -7 15 -15 15
-8 0 -15 4 -15 9 0 5 -13 12 -30 16 -16 4 -30 10 -30 15 0 4 -18 10 -40 14
-22 3 -40 11 -40 16 0 16 -57 12 -64 -5 -3 -8 -17 -15 -31 -15 -14 0 -25 -4
-25 -9 0 -5 -13 -12 -30 -16 -16 -4 -30 -11 -30 -16 0 -5 -7 -9 -15 -9 -8 0
-15 -7 -15 -15 0 -10 -10 -15 -30 -15 -20 0 -30 -5 -30 -15 0 -9 -9 -15 -25
-15 -16 0 -25 -6 -25 -15 0 -8 -9 -15 -20 -15 -11 0 -20 -4 -20 -10 0 -5 -12
-13 -27 -16 -15 -4 -34 -13 -41 -21 -7 -7 -20 -13 -28 -13 -8 0 -14 -7 -14
-15 0 -10 -10 -15 -30 -15 -16 0 -30 -4 -30 -10 0 -5 -7 -10 -15 -10 -13 0
-15 78 -15 644 0 560 -2 647 -15 660 -8 8 -15 19 -15 25 0 6 -7 11 -15 11 -8
0 -15 7 -15 15 0 10 -10 15 -30 15 -20 0 -30 5 -30 15 0 9 -9 15 -24 15 -13 0
-26 7 -30 15 -3 8 -10 15 -16 15 -6 0 -18 7 -26 15 -9 8 -24 15 -35 15 -10 0
-19 4 -19 10 0 5 -11 12 -25 16 -14 3 -25 10 -25 14 0 5 -13 11 -30 15 -16 4
-30 11 -30 16 0 5 -7 9 -15 9 -9 0 -18 7 -21 15 -4 8 -17 15 -30 15 -14 0 -24
6 -24 14 0 8 -13 17 -30 21 -16 4 -30 10 -30 15 0 4 -11 11 -25 14 -14 4 -25
11 -25 16 0 6 -9 10 -20 10 -11 0 -20 7 -20 15 0 10 -10 15 -30 15 -19 0 -30
5 -30 14 0 8 -11 17 -25 20 -14 4 -25 11 -25 16 0 6 -9 10 -19 10 -11 0 -26 7
-35 15 -8 8 -22 15 -30 15 -9 0 -16 7 -16 15 0 9 -9 15 -25 15 -16 0 -25 6
-25 15 0 10 -10 15 -30 15 -20 0 -30 5 -30 15 0 9 -9 15 -24 15 -13 0 -26 7
-30 15 -3 8 -12 15 -21 15 -8 0 -15 4 -15 9 0 5 -13 12 -30 16 -16 4 -30 10
-30 15 0 4 -11 11 -25 14 -14 4 -25 11 -25 16 0 6 -7 10 -15 10 -9 0 -18 7
-21 15 -4 8 -17 15 -30 15 -14 0 -27 6 -30 14 -3 8 -16 17 -30 20 -13 4 -24
10 -24 15 0 5 -13 12 -30 16 -16 4 -30 10 -30 15 0 4 -11 11 -25 14 -14 4 -25
11 -25 16 0 6 -9 10 -20 10 -11 0 -20 7 -20 15 0 9 -9 15 -25 15 -14 0 -28 6
-31 14 -3 8 -16 17 -30 20 -13 4 -24 11 -24 16 0 6 -9 10 -20 10 -11 0 -20 7
-20 15 0 10 -10 15 -30 15 -20 0 -30 5 -30 15 0 9 -9 15 -24 15 -13 0 -26 7
-30 15 -3 8 -17 15 -31 15 -14 0 -25 5 -25 10 0 6 -7 10 -15 10 -8 0 -15 7
-15 15 0 10 -10 15 -30 15 -19 0 -30 5 -30 14 0 8 -13 17 -30 21 -16 4 -30 10
-30 15 0 4 -11 11 -25 14 -14 4 -25 11 -25 16 0 6 -9 10 -20 10 -11 0 -20 6
-20 14 0 8 -11 17 -25 20 -14 4 -25 11 -25 16 0 6 -9 10 -19 10 -11 0 -26 6
-33 13 -7 7 -21 16 -30 20 -10 3 -18 11 -18 17 0 5 -11 10 -25 10 -16 0 -25 6
-25 15 0 9 -9 15 -25 15 -14 0 -28 7 -31 15 -4 8 -17 15 -30 15 -15 0 -24 6
-24 15 0 8 -7 15 -16 15 -8 0 -22 7 -30 15 -9 8 -24 15 -35 15 -10 0 -19 4
-19 9 0 5 -10 13 -22 17 -13 4 -26 11 -29 16 -6 9 -821 18 -862 10z m-4797
-1297 c0 -10 10 -15 30 -15 20 0 30 -5 30 -15 0 -10 10 -15 30 -15 20 0 30 -5
30 -15 0 -8 7 -15 15 -15 8 0 15 -4 15 -9 0 -5 14 -12 30 -16 17 -4 30 -10 30
-15 0 -4 11 -11 25 -14 14 -4 25 -11 25 -16 0 -6 9 -10 20 -10 11 0 20 -7 20
-15 0 -9 9 -15 25 -15 14 0 28 -7 31 -15 4 -8 12 -15 19 -15 8 0 20 -6 27 -13
7 -8 26 -17 41 -21 15 -3 27 -11 27 -16 0 -6 7 -10 15 -10 9 0 18 -7 21 -15 4
-8 17 -15 30 -15 14 0 24 -6 24 -14 0 -8 14 -17 30 -21 17 -4 30 -10 30 -15 0
-4 11 -11 25 -14 14 -4 25 -11 25 -16 0 -6 9 -10 20 -10 11 0 20 -7 20 -15 0
-10 10 -15 30 -15 20 0 30 -5 30 -15 0 -9 9 -15 24 -15 13 0 26 -7 30 -15 3
-8 16 -15 30 -15 13 0 26 -7 30 -15 3 -8 12 -15 21 -15 8 0 15 -4 15 -10 0 -5
11 -10 25 -10 15 0 25 -6 25 -14 0 -8 14 -17 30 -21 17 -4 30 -10 30 -15 0 -4
11 -11 25 -14 14 -4 25 -11 25 -16 0 -6 9 -10 20 -10 11 0 20 -7 20 -15 0 -10
10 -15 30 -15 20 0 30 -5 30 -15 0 -8 6 -15 14 -15 8 0 21 -6 28 -13 7 -8 26
-17 41 -21 15 -3 27 -11 27 -16 0 -6 9 -10 20 -10 11 0 20 -7 20 -15 0 -9 9
-15 25 -15 16 0 25 -6 25 -15 0 -10 10 -15 30 -15 20 0 30 -5 30 -15 0 -9 9
-15 24 -15 13 0 26 -7 30 -15 3 -8 17 -15 31 -15 16 0 25 -6 25 -15 0 -8 9
-15 20 -15 11 0 20 -7 20 -15 0 -10 10 -15 30 -15 17 0 30 -4 30 -10 0 -5 11
-12 25 -16 14 -3 25 -10 25 -14 0 -5 14 -11 30 -15 17 -4 30 -10 30 -15 0 -4
11 -11 25 -14 14 -4 25 -11 25 -16 0 -6 9 -10 20 -10 11 0 20 -6 20 -14 0 -8
14 -17 30 -21 17 -4 30 -11 30 -16 0 -5 6 -9 14 -9 8 0 21 -6 28 -13 7 -8 26
-17 41 -21 15 -3 27 -11 27 -16 0 -6 9 -10 20 -10 11 0 20 -7 20 -15 0 -9 9
-15 25 -15 16 0 25 -6 25 -15 0 -10 10 -15 30 -15 20 0 30 -5 30 -15 0 -8 7
-15 15 -15 9 0 18 -7 21 -15 4 -8 15 -15 26 -15 11 0 26 -7 34 -15 9 -8 24
-15 35 -15 10 0 19 -4 19 -10 0 -5 11 -12 25 -16 14 -3 25 -10 25 -14 0 -5 14
-11 30 -15 17 -4 30 -11 30 -16 0 -5 7 -9 15 -9 9 0 18 -7 21 -15 4 -8 16 -15
28 -15 12 0 29 -9 39 -20 9 -11 24 -20 32 -20 8 0 15 -4 15 -9 0 -5 14 -12 30
-16 17 -4 30 -11 30 -16 0 -5 7 -9 15 -9 8 0 15 -7 15 -15 0 -10 10 -15 30
-15 19 0 30 -5 30 -14 0 -8 11 -17 25 -20 14 -4 25 -11 25 -16 0 -6 9 -10 20
-10 11 0 20 -7 20 -15 0 -10 10 -15 30 -15 20 0 30 -5 30 -15 0 -9 9 -15 25
-15 16 0 25 -6 25 -15 0 -10 10 -15 30 -15 17 0 30 -3 30 -7 0 -5 3 -18 6 -30
5 -19 2 -23 -15 -23 -12 0 -21 -6 -21 -15 0 -9 -9 -15 -25 -15 -16 0 -25 -6
-25 -15 0 -10 -10 -15 -30 -15 -20 0 -30 -5 -30 -15 0 -8 -9 -15 -20 -15 -11
0 -20 -4 -20 -10 0 -5 -11 -12 -25 -16 -14 -3 -25 -10 -25 -14 0 -5 -13 -11
-30 -15 -16 -4 -30 -13 -30 -21 0 -9 -11 -14 -30 -14 -20 0 -30 -5 -30 -15 0
-8 -7 -15 -15 -15 -8 0 -15 -4 -15 -9 0 -5 -13 -12 -30 -16 -16 -4 -30 -10
-30 -15 0 -4 -11 -11 -25 -14 -14 -4 -25 -10 -25 -15 0 -5 -13 -12 -30 -16
-16 -4 -30 -11 -30 -16 0 -5 -7 -9 -15 -9 -8 0 -15 -7 -15 -15 0 -8 -6 -15
-14 -15 -21 0 -27 -166 -24 -707 1 -265 -1 -485 -5 -490 -5 -4 -11 -2 -15 4
-4 6 -20 15 -35 18 -15 4 -27 11 -27 16 0 5 -7 9 -15 9 -9 0 -18 7 -21 15 -4
8 -17 15 -30 15 -14 0 -24 6 -24 14 0 8 -13 17 -30 21 -16 4 -30 10 -30 15 0
5 -13 11 -30 15 -16 4 -30 10 -30 15 0 4 -11 11 -25 14 -14 4 -25 11 -25 16 0
6 -9 10 -20 10 -11 0 -20 7 -20 15 0 10 -10 15 -30 15 -20 0 -30 5 -30 15 0 9
-9 15 -25 15 -16 0 -25 6 -25 15 0 10 -10 15 -30 15 -20 0 -30 5 -30 15 0 8
-7 15 -15 15 -8 0 -15 7 -15 15 0 9 -10 15 -26 15 -14 0 -32 7 -40 15 -9 8
-24 15 -35 15 -10 0 -19 4 -19 10 0 5 -11 12 -25 16 -14 3 -25 10 -25 14 0 5
-13 11 -30 15 -16 4 -30 11 -30 16 0 5 -7 9 -15 9 -9 0 -18 7 -21 15 -4 8 -16
15 -28 15 -12 0 -29 9 -39 20 -9 11 -24 20 -32 20 -8 0 -15 4 -15 9 0 5 -13
12 -30 16 -16 4 -30 11 -30 16 0 5 -7 9 -15 9 -8 0 -15 7 -15 15 0 10 -10 15
-30 15 -19 0 -30 5 -30 14 0 8 -11 17 -25 20 -14 4 -25 11 -25 16 0 6 -9 10
-19 10 -11 0 -26 7 -35 15 -8 8 -22 15 -30 15 -9 0 -16 7 -16 15 0 10 -10 15
-30 15 -20 0 -30 5 -30 15 0 9 -9 15 -25 15 -16 0 -25 6 -25 15 0 8 -9 15 -20
15 -11 0 -20 4 -20 10 0 5 -11 12 -25 16 -14 3 -25 10 -25 14 0 5 -13 11 -30
15 -16 4 -30 10 -30 15 0 5 -13 11 -30 15 -16 4 -30 11 -30 16 0 5 -13 9 -30
9 -16 0 -30 -4 -30 -9 0 -5 -10 -13 -22 -16 -11 -4 -31 -18 -43 -30 -11 -13
-33 -27 -48 -30 -15 -4 -27 -11 -27 -16 0 -5 -7 -9 -15 -9 -8 0 -15 -7 -15
-15 0 -8 -7 -15 -15 -15 -8 0 -15 -4 -15 -10 0 -5 -11 -12 -24 -16 -14 -3 -27
-12 -30 -20 -3 -8 -12 -14 -21 -14 -8 0 -15 -4 -15 -10 0 -5 -11 -12 -25 -16
-14 -3 -25 -10 -25 -14 0 -5 -3 -15 -6 -24 -4 -10 -1 -16 8 -16 8 0 25 -13 38
-30 14 -16 35 -29 48 -30 13 0 22 -6 22 -15 0 -10 10 -15 30 -15 20 0 30 -5
30 -15 0 -8 7 -15 15 -15 11 0 15 -12 15 -44 0 -27 5 -46 13 -48 9 -4 13 -317
15 -1511 l3 -1507 -30 0 c-21 0 -31 5 -31 15 0 10 -10 15 -30 15 -20 0 -30 5
-30 15 0 9 -9 15 -24 15 -13 0 -26 7 -30 15 -3 8 -12 15 -21 15 -8 0 -15 4
-15 9 0 5 -13 12 -30 16 -16 4 -30 11 -30 16 0 5 -10 9 -23 9 -12 0 -30 9 -40
20 -9 11 -24 20 -32 20 -8 0 -15 4 -15 9 0 5 -13 12 -30 16 -16 4 -30 11 -30
16 0 5 -7 9 -15 9 -9 0 -18 7 -21 15 -4 8 -17 15 -30 15 -14 0 -24 6 -24 14 0
8 -13 17 -30 21 -16 4 -30 11 -30 16 0 5 -7 9 -15 9 -8 0 -15 7 -15 15 0 10
-10 15 -30 15 -20 0 -30 5 -30 15 0 9 -9 15 -25 15 -16 0 -25 6 -25 15 0 10
-10 15 -30 15 -20 0 -30 5 -30 15 0 8 -9 15 -20 15 -11 0 -20 7 -20 15 0 9 -9
15 -24 15 -13 0 -26 7 -30 15 -3 8 -17 15 -31 15 -14 0 -25 4 -25 10 0 5 -11
12 -25 16 -14 3 -25 10 -25 15 0 5 -7 9 -15 9 -9 0 -18 7 -21 15 -4 8 -17 15
-30 15 -14 0 -27 6 -30 14 -3 8 -16 17 -30 20 -13 4 -24 11 -24 16 0 6 -9 10
-19 10 -11 0 -26 6 -33 13 -7 8 -26 17 -41 21 -15 3 -27 11 -27 16 0 6 -7 10
-15 10 -9 0 -18 7 -21 15 -4 8 -17 15 -30 15 -15 0 -24 6 -24 15 0 8 -7 15
-15 15 -13 0 -15 272 -15 2384 l0 2384 30 7 c17 4 30 13 30 21 0 8 10 14 24
14 13 0 26 7 30 15 3 8 10 15 16 15 6 0 18 7 26 15 9 8 24 15 35 15 10 0 19 4
19 10 0 5 11 12 25 16 14 3 25 12 25 20 0 9 11 14 30 14 20 0 30 5 30 15 0 8
9 15 20 15 11 0 20 4 20 10 0 5 11 12 25 16 14 3 25 10 25 14 0 5 14 11 30 15
17 4 30 10 30 15 0 4 11 11 25 14 14 4 25 11 25 16 0 6 9 10 20 10 11 0 20 7
20 15 0 10 10 15 30 15 20 0 30 5 30 15 0 10 10 15 30 15 20 0 30 5 30 15 0
11 11 15 40 15 29 0 40 -4 40 -15z m7010 0 c0 -11 11 -15 40 -15 29 0 40 -4
40 -15 0 -8 9 -15 20 -15 11 0 20 -4 20 -10 0 -5 11 -12 25 -16 14 -3 25 -10
25 -14 0 -5 14 -11 30 -15 17 -4 30 -10 30 -15 0 -4 11 -11 25 -14 14 -4 25
-11 25 -16 0 -6 9 -10 20 -10 11 0 20 -7 20 -15 0 -10 10 -15 30 -15 20 0 30
-5 30 -15 0 -10 10 -15 30 -15 20 0 30 -5 30 -15 0 -8 6 -15 14 -15 8 0 21 -6
28 -13 7 -8 26 -17 41 -21 15 -3 27 -11 27 -16 0 -6 7 -10 15 -10 9 0 18 -7
21 -15 4 -8 15 -15 25 -15 11 0 22 -7 25 -15 4 -8 12 -15 20 -15 8 0 14 -7 14
-15 0 -8 7 -15 15 -15 14 0 16 -62 13 -582 -2 -454 -6 -582 -15 -586 -7 -2
-13 -12 -13 -23 0 -10 -7 -19 -15 -19 -8 0 -15 -4 -15 -9 0 -5 -13 -12 -30
-16 -16 -4 -30 -10 -30 -15 0 -4 -11 -11 -25 -14 -14 -4 -25 -11 -25 -16 0 -6
-7 -10 -16 -10 -8 0 -22 -7 -30 -15 -9 -8 -24 -15 -35 -15 -10 0 -19 -7 -19
-15 0 -9 -9 -15 -25 -15 -16 0 -25 -6 -25 -15 0 -10 -10 -15 -30 -15 -20 0
-30 -5 -30 -15 0 -10 -10 -15 -30 -15 -20 0 -30 -5 -30 -15 0 -8 -7 -15 -15
-15 -8 0 -15 -4 -15 -9 0 -5 -13 -12 -30 -16 -16 -4 -30 -13 -30 -21 0 -8 -10
-14 -24 -14 -13 0 -26 -7 -30 -15 -3 -8 -16 -15 -30 -15 -13 0 -26 -7 -30 -15
-3 -8 -12 -15 -21 -15 -8 0 -15 -4 -15 -9 0 -5 -13 -12 -30 -16 -16 -4 -30
-11 -30 -16 0 -5 -11 -11 -25 -15 -14 -3 -25 -10 -25 -14 0 -5 -13 -11 -30
-15 -16 -4 -30 -10 -30 -15 0 -5 -13 -11 -30 -15 -16 -4 -30 -11 -30 -16 0 -5
-7 -9 -15 -9 -8 0 -15 -7 -15 -15 0 -10 -10 -15 -30 -15 -20 0 -30 -5 -30 -15
0 -9 -9 -15 -25 -15 -16 0 -25 -6 -25 -15 0 -10 -10 -15 -30 -15 -20 0 -30 -5
-30 -15 0 -8 -9 -15 -20 -15 -11 0 -20 -4 -20 -10 0 -5 -11 -12 -25 -16 -14
-3 -25 -10 -25 -14 0 -5 -13 -11 -30 -15 -16 -4 -30 -10 -30 -15 0 -5 -13 -11
-30 -15 -16 -4 -30 -13 -30 -21 0 -8 -10 -14 -24 -14 -13 0 -26 -7 -30 -15 -3
-8 -12 -15 -21 -15 -8 0 -15 -4 -15 -9 0 -5 -13 -12 -30 -16 -16 -4 -30 -10
-30 -15 0 -4 -11 -11 -25 -14 -14 -4 -25 -10 -25 -15 0 -5 -13 -12 -30 -16
-16 -4 -30 -11 -30 -16 0 -5 -7 -9 -15 -9 -9 0 -18 -7 -21 -15 -4 -8 -17 -15
-30 -15 -15 0 -24 -6 -24 -15 0 -10 -10 -15 -30 -15 -20 0 -30 -5 -30 -15 0
-9 -9 -15 -25 -15 -16 0 -25 -6 -25 -15 0 -8 -7 -15 -16 -15 -8 0 -22 -7 -30
-15 -9 -8 -24 -15 -35 -15 -10 0 -19 -7 -19 -15 0 -9 -9 -15 -25 -15 -16 0
-25 -6 -25 -15 0 -10 -10 -15 -30 -15 -20 0 -30 -5 -30 -15 0 -8 -9 -15 -20
-15 -11 0 -20 -4 -20 -10 0 -5 -11 -12 -25 -16 -14 -3 -25 -10 -25 -14 0 -5
-13 -11 -30 -15 -16 -4 -30 -13 -30 -21 0 -8 -10 -14 -24 -14 -13 0 -26 -7
-30 -15 -3 -8 -12 -15 -21 -15 -8 0 -15 -4 -15 -9 0 -5 -13 -12 -30 -16 -16
-4 -30 -10 -30 -15 0 -5 -13 -11 -30 -15 -16 -4 -30 -11 -30 -16 0 -5 -11 -9
-25 -9 -16 0 -25 -6 -25 -15 0 -10 -10 -15 -30 -15 -20 0 -30 -5 -30 -15 0 -8
-9 -15 -20 -15 -11 0 -20 -4 -20 -10 0 -5 -11 -12 -25 -16 -14 -3 -25 -10 -25
-14 0 -5 -13 -11 -30 -15 -16 -4 -30 -13 -30 -21 0 -8 -10 -14 -24 -14 -13 0
-26 -7 -30 -15 -3 -8 -17 -15 -31 -15 -16 0 -25 -6 -25 -15 0 -8 -7 -15 -16
-15 -8 0 -22 -7 -30 -15 -9 -8 -24 -15 -35 -15 -10 0 -19 -4 -19 -10 0 -5 -11
-12 -25 -16 -14 -3 -25 -12 -25 -20 0 -9 -11 -14 -30 -14 -20 0 -30 -5 -30
-15 0 -8 -7 -15 -15 -15 -8 0 -15 -4 -15 -9 0 -5 -13 -12 -30 -16 -16 -4 -30
-10 -30 -15 0 -4 -11 -11 -25 -14 -14 -4 -25 -11 -25 -16 0 -6 -9 -10 -20 -10
-11 0 -20 -7 -20 -15 0 -10 -10 -15 -30 -15 -20 0 -30 -5 -30 -15 0 -10 -10
-15 -30 -15 -20 0 -30 -5 -30 -15 0 -9 -9 -15 -24 -15 -13 0 -26 -7 -30 -15
-3 -8 -17 -15 -31 -15 -16 0 -25 -6 -25 -15 0 -10 -10 -15 -30 -15 -20 0 -30
-5 -30 -15 0 -8 -7 -15 -15 -15 -8 0 -15 -4 -15 -10 0 -5 -7 -10 -15 -10 -8 0
-23 -9 -32 -20 -10 -11 -21 -20 -26 -20 -38 0 -37 45 -37 -1814 l0 -1786 -30
0 c-20 0 -30 -5 -30 -15 0 -8 -7 -15 -16 -15 -8 0 -22 -7 -30 -15 -9 -8 -24
-15 -35 -15 -10 0 -19 -4 -19 -10 0 -5 -11 -12 -25 -16 -14 -3 -25 -12 -25
-20 0 -9 -11 -14 -30 -14 -20 0 -30 -5 -30 -15 0 -8 -7 -15 -15 -15 -8 0 -15
-4 -15 -9 0 -5 -13 -12 -30 -16 -16 -4 -30 -11 -30 -16 0 -5 -7 -9 -15 -9 -8
0 -23 -9 -32 -20 -10 -11 -27 -20 -39 -20 -12 0 -24 -7 -28 -15 -3 -8 -12 -15
-21 -15 -8 0 -15 -4 -15 -9 0 -5 -11 -12 -25 -15 -14 -4 -25 -11 -25 -16 0 -6
-13 -10 -30 -10 -20 0 -30 -5 -30 -15 0 -10 -10 -15 -30 -15 -20 0 -30 -5 -30
-15 0 -8 -7 -15 -15 -15 -8 0 -15 7 -15 15 0 10 -10 15 -30 15 -20 0 -30 5
-30 15 0 8 -7 15 -15 15 -8 0 -15 4 -15 9 0 5 -14 12 -30 16 -17 4 -30 11 -30
16 0 5 -11 9 -25 9 -14 0 -28 6 -31 14 -3 8 -16 17 -30 20 -13 4 -24 10 -24
15 0 5 -13 12 -30 16 -16 4 -30 11 -30 16 0 5 -7 9 -15 9 -9 0 -18 7 -21 15
-4 8 -17 15 -30 15 -14 0 -24 6 -24 14 0 8 -14 17 -30 21 -16 4 -30 10 -30 15
0 4 -11 11 -25 14 -14 4 -25 11 -25 16 0 6 -9 10 -20 10 -11 0 -20 7 -20 15 0
9 -9 15 -25 15 -16 0 -25 6 -25 15 0 10 -10 15 -30 15 -25 0 -30 4 -35 33 -3
17 -4 1094 -3 2393 l3 2360 29 27 c16 15 37 27 47 27 11 0 19 4 19 10 0 5 11
12 25 16 14 3 25 10 25 14 0 5 14 11 30 15 17 4 30 13 30 21 0 8 7 14 15 14 8
0 15 4 15 9 0 5 14 12 30 16 17 4 30 11 30 16 0 5 6 9 14 9 8 0 21 6 28 13 7
8 26 17 41 21 15 3 27 11 27 16 0 6 9 10 20 10 11 0 20 7 20 15 0 10 10 15 30
15 20 0 30 5 30 15 0 9 9 15 25 15 16 0 25 6 25 15 0 10 10 15 30 15 20 0 30
5 30 15 0 10 10 15 30 15 20 0 30 5 30 15 0 8 7 15 15 15 8 0 15 4 15 9 0 5
14 12 30 16 17 4 30 11 30 16 0 5 11 11 24 15 14 3 27 12 30 20 3 8 17 14 31
14 16 0 25 6 25 15 0 8 9 15 20 15 11 0 20 4 20 10 0 5 11 12 25 16 14 3 25
10 25 14 0 5 14 11 30 15 17 4 30 10 30 15 0 5 14 11 30 15 17 4 30 10 30 15
0 4 11 11 25 14 14 4 25 11 25 16 0 6 9 10 20 10 11 0 20 7 20 15 0 9 9 15 25
15 16 0 25 6 25 15 0 10 10 15 30 15 20 0 30 5 30 15 0 10 10 15 30 15 20 0
30 5 30 15 0 8 9 15 20 15 11 0 20 4 20 10 0 5 11 12 25 16 14 3 25 12 25 20
0 9 11 14 30 14 20 0 30 5 30 15 0 8 7 15 15 15 8 0 15 4 15 9 0 5 14 12 30
16 17 4 30 11 30 16 0 5 7 9 15 9 8 0 23 9 32 20 10 11 27 20 39 20 12 0 24 7
28 15 3 8 16 15 30 15 13 0 26 7 30 15 3 8 12 15 21 15 8 0 15 5 15 10 0 6 11
10 25 10 16 0 25 6 25 15 0 10 10 15 30 15 20 0 30 5 30 15 0 9 9 15 25 15 16
0 25 6 25 15 0 8 7 15 16 15 8 0 22 7 30 15 9 8 24 15 35 15 10 0 19 7 19 15
0 9 9 15 25 15 16 0 25 6 25 15 0 10 10 15 30 15 20 0 30 5 30 15 0 8 9 15 20
15 11 0 20 4 20 10 0 5 11 12 25 16 14 3 25 10 25 14 0 5 14 11 30 15 17 4 30
13 30 21 0 9 11 14 30 14 20 0 30 5 30 15 0 9 9 15 24 15 13 0 26 7 30 15 3 8
12 15 21 15 8 0 15 4 15 9 0 5 14 12 30 16 17 4 30 11 30 16 0 5 6 9 14 9 8 0
21 6 28 13 7 8 26 17 41 21 15 3 27 11 27 16 0 6 9 10 20 10 11 0 20 7 20 15
0 9 9 15 25 15 16 0 25 6 25 15 0 10 10 15 30 15 20 0 30 5 30 15 0 9 9 15 25
15 16 0 25 6 25 15 0 8 7 15 16 15 8 0 22 7 30 15 9 8 24 15 35 15 10 0 19 4
19 10 0 5 11 12 25 16 14 3 25 12 25 20 0 9 11 14 30 14 20 0 30 5 30 15 0 8
9 15 20 15 11 0 20 4 20 10 0 5 11 12 25 16 14 3 25 10 25 14 0 5 14 11 30 15
17 4 30 10 30 15 0 4 11 11 25 14 14 4 25 10 25 15 0 5 14 12 30 16 17 4 30
11 30 16 0 5 9 9 20 9 11 0 20 7 20 15 0 10 10 15 30 15 20 0 30 5 30 15 0 9
9 15 25 15 16 0 25 6 25 15 0 10 10 15 30 15 20 0 30 5 30 15 0 10 10 15 30
15 20 0 30 5 30 15 0 8 7 15 15 15 8 0 15 4 15 9 0 5 14 12 30 16 17 4 30 11
30 16 0 5 11 11 24 15 14 3 27 12 30 20 3 8 17 14 31 14 16 0 25 6 25 15 0 10
10 15 30 15 20 0 30 5 30 15 0 8 9 15 20 15 11 0 20 4 20 10 0 5 11 12 25 16
14 3 25 10 25 14 0 5 14 11 30 15 17 4 30 11 30 16 0 5 6 9 14 9 8 0 21 6 28
13 7 8 26 17 41 21 15 3 27 11 27 16 0 6 9 10 20 10 11 0 20 7 20 15 0 10 10
15 30 15 20 0 30 5 30 15 0 8 7 15 15 15 8 0 15 -7 15 -15z m-8704 -1670 c4
-9 19 -15 35 -15 19 0 29 -5 29 -15 0 -9 9 -15 24 -15 13 0 26 -7 30 -15 3 -8
17 -15 31 -15 14 0 25 -4 25 -9 0 -5 11 -12 25 -15 14 -4 25 -11 25 -16 0 -6
9 -10 20 -10 11 0 20 -6 20 -14 0 -8 14 -17 30 -21 17 -4 30 -10 30 -15 0 -4
11 -11 25 -14 14 -4 25 -11 25 -16 0 -6 9 -10 19 -10 11 0 26 -7 35 -15 8 -8
20 -15 26 -15 6 0 13 -7 16 -15 4 -8 12 -15 20 -15 8 0 14 -7 14 -15 0 -8 5
-15 10 -15 7 0 10 -193 10 -560 0 -321 -4 -560 -9 -560 -5 0 -12 -11 -15 -25
-4 -16 -16 -27 -34 -32 -15 -3 -33 -12 -40 -20 -7 -7 -19 -13 -27 -13 -7 0
-15 -7 -19 -15 -3 -8 -17 -15 -31 -15 -16 0 -25 -6 -25 -15 0 -8 -9 -15 -20
-15 -11 0 -20 -4 -20 -10 0 -5 -11 -12 -25 -16 -14 -3 -25 -10 -25 -14 0 -5
-13 -11 -30 -15 -16 -4 -30 -10 -30 -15 0 -4 -11 -11 -25 -14 -14 -4 -25 -11
-25 -16 0 -6 -9 -10 -20 -10 -11 0 -20 -7 -20 -15 0 -10 -10 -15 -30 -15 -20
0 -30 -5 -30 -15 0 -11 -12 -15 -45 -15 -33 0 -45 4 -45 15 0 10 -10 15 -30
15 -20 0 -30 5 -30 15 0 9 -9 15 -24 15 -13 0 -26 7 -30 15 -3 8 -17 15 -31
15 -16 0 -25 6 -25 15 0 8 -6 15 -14 15 -8 0 -16 5 -18 11 -2 6 -16 12 -31 12
-15 0 -27 5 -27 12 0 8 -13 16 -30 20 -17 4 -30 10 -30 15 0 4 -11 11 -25 14
-14 4 -25 11 -25 16 0 6 -9 10 -20 10 -11 0 -20 7 -20 15 0 10 -10 15 -30 15
-20 0 -30 5 -30 15 0 9 -9 15 -25 15 -15 0 -25 6 -25 14 0 8 -13 17 -30 21
-16 4 -30 11 -30 16 0 5 -7 9 -15 9 -8 0 -15 6 -15 14 0 9 -12 16 -27 18 l-28
3 -3 483 c-2 424 0 482 13 482 8 0 15 7 15 15 0 8 7 15 15 15 8 0 15 7 15 15
0 9 9 15 24 15 13 0 26 7 30 15 3 8 10 15 16 15 6 0 18 7 26 15 9 8 24 15 35
15 10 0 19 4 19 10 0 5 11 12 25 16 14 3 25 12 25 20 0 9 11 14 30 14 20 0 30
5 30 15 0 10 10 15 30 15 20 0 30 5 30 15 0 8 7 15 15 15 8 0 15 4 15 9 0 5
14 12 30 16 17 4 30 11 30 16 0 5 6 9 14 9 8 0 21 6 28 13 7 8 26 17 41 21 15
3 27 11 27 16 0 6 14 10 30 10 20 0 30 5 30 15 0 10 10 15 30 15 20 0 30 5 30
15 0 8 7 15 15 15 9 0 18 -7 21 -15z m10374 0 c0 -10 10 -15 30 -15 20 0 30
-5 30 -15 0 -9 9 -15 24 -15 13 0 26 -7 30 -15 3 -8 17 -15 31 -15 14 0 25 -4
25 -10 0 -5 7 -10 15 -10 8 0 15 -7 15 -15 0 -10 10 -15 30 -15 19 0 30 -5 30
-14 0 -8 14 -17 30 -21 17 -4 30 -10 30 -15 0 -4 11 -11 25 -14 14 -4 25 -11
25 -16 0 -6 9 -10 19 -10 11 0 26 -7 35 -15 8 -8 22 -15 30 -15 9 0 16 -7 16
-15 0 -9 9 -15 25 -15 14 0 28 -6 31 -14 3 -8 16 -17 30 -20 13 -4 24 -10 24
-15 0 -5 14 -12 30 -16 17 -4 30 -11 30 -16 0 -5 7 -9 15 -9 8 0 15 -7 15 -15
0 -8 7 -15 15 -15 13 0 15 -58 13 -482 l-3 -483 -27 -3 c-16 -2 -28 -9 -28
-18 0 -8 -10 -14 -24 -14 -13 0 -26 -7 -30 -15 -3 -8 -10 -15 -16 -15 -6 0
-18 -7 -26 -15 -9 -8 -24 -15 -35 -15 -10 0 -19 -4 -19 -10 0 -5 -11 -12 -25
-16 -14 -3 -25 -12 -25 -20 0 -9 -11 -14 -30 -14 -20 0 -30 -5 -30 -15 0 -8
-9 -15 -20 -15 -11 0 -20 -4 -20 -10 0 -5 -11 -12 -25 -16 -14 -3 -25 -10 -25
-14 0 -5 -13 -11 -30 -15 -16 -4 -30 -11 -30 -16 0 -5 -7 -9 -15 -9 -8 0 -15
-7 -15 -15 0 -10 -10 -15 -30 -15 -20 0 -30 -5 -30 -15 0 -9 -9 -15 -25 -15
-16 0 -25 -6 -25 -15 0 -10 -10 -15 -30 -15 -20 0 -30 -5 -30 -15 0 -11 -12
-15 -45 -15 -33 0 -45 4 -45 15 0 10 -10 15 -30 15 -20 0 -30 5 -30 15 0 10
-10 15 -30 15 -20 0 -30 5 -30 15 0 8 -7 15 -15 15 -8 0 -15 4 -15 9 0 5 -13
12 -30 16 -16 4 -30 10 -30 15 0 4 -11 11 -25 14 -14 4 -25 11 -25 16 0 6 -9
10 -20 10 -11 0 -20 7 -20 15 0 9 -9 15 -25 15 -14 0 -28 7 -31 15 -4 8 -12
15 -19 15 -8 0 -20 6 -27 13 -7 8 -25 17 -40 20 -18 5 -30 16 -34 32 -3 14
-10 25 -15 25 -5 0 -9 27 -9 60 0 33 4 60 10 60 6 0 10 7 10 15 0 8 -4 15 -10
15 -7 0 -10 168 -10 485 0 277 4 485 9 485 5 0 12 11 15 25 4 16 16 27 34 32
15 3 33 12 40 20 7 7 20 13 28 13 8 0 14 7 14 15 0 10 10 15 30 15 20 0 30 5
30 15 0 8 9 15 20 15 11 0 20 4 20 10 0 5 11 12 25 16 14 3 25 10 25 14 0 5
14 11 30 15 17 4 30 10 30 15 0 4 11 11 25 14 14 4 25 11 25 16 0 6 9 10 19
10 11 0 26 7 35 15 8 8 20 15 26 15 6 0 18 7 26 15 9 8 24 15 35 15 10 0 19
-7 19 -15z m-973 -1948 c2 -1332 1 -1518 -12 -1523 -8 -4 -15 -12 -15 -20 0
-8 -7 -14 -15 -14 -8 0 -15 -4 -15 -9 0 -5 -13 -12 -30 -16 -16 -4 -30 -11
-30 -16 0 -5 -11 -11 -24 -15 -14 -3 -27 -12 -30 -20 -3 -8 -16 -14 -30 -14
-13 0 -26 -7 -30 -15 -3 -8 -12 -15 -21 -15 -8 0 -15 -4 -15 -9 0 -5 -13 -12
-30 -16 -16 -4 -30 -10 -30 -15 0 -4 -11 -11 -25 -14 -14 -4 -25 -10 -25 -15
0 -5 -13 -12 -30 -16 -16 -4 -30 -10 -30 -15 0 -5 -13 -11 -30 -15 -16 -4 -30
-11 -30 -16 0 -5 -7 -9 -15 -9 -8 0 -15 -7 -15 -15 0 -10 -10 -15 -30 -15 -20
0 -30 -5 -30 -15 0 -9 -9 -15 -25 -15 -16 0 -25 -6 -25 -15 0 -10 -10 -15 -30
-15 -20 0 -30 -5 -30 -15 0 -8 -7 -15 -16 -15 -8 0 -22 -7 -30 -15 -9 -8 -24
-15 -35 -15 -10 0 -19 -4 -19 -10 0 -5 -11 -12 -25 -16 -14 -3 -25 -12 -25
-20 0 -9 -11 -14 -30 -14 -20 0 -30 -5 -30 -15 0 -9 -9 -15 -24 -15 -13 0 -26
-7 -30 -15 -3 -8 -12 -15 -21 -15 -8 0 -15 -4 -15 -9 0 -5 -13 -12 -30 -16
-16 -4 -30 -10 -30 -15 0 -4 -11 -11 -25 -14 -14 -4 -25 -10 -25 -15 0 -5 -13
-12 -30 -16 -16 -4 -30 -11 -30 -16 0 -5 -7 -9 -15 -9 -9 0 -18 -7 -21 -15 -4
-8 -17 -15 -30 -15 -15 0 -24 -6 -24 -15 0 -10 -10 -15 -30 -15 -20 0 -30 -5
-30 -15 0 -9 -9 -15 -24 -15 -13 0 -26 -7 -30 -15 -3 -8 -12 -15 -21 -15 -8 0
-15 -4 -15 -10 0 -5 -12 -13 -27 -16 -15 -4 -34 -13 -41 -21 -7 -7 -22 -13
-33 -13 -10 0 -19 -4 -19 -10 0 -5 -11 -12 -25 -16 -14 -3 -25 -12 -25 -20 0
-9 -11 -14 -30 -14 -20 0 -30 -5 -30 -15 0 -8 -7 -15 -15 -15 -8 0 -15 -4 -15
-9 0 -5 -13 -12 -30 -16 -16 -4 -30 -13 -30 -21 0 -8 -10 -14 -24 -14 -13 0
-26 -7 -30 -15 -3 -8 -12 -15 -21 -15 -8 0 -15 -4 -15 -9 0 -5 -13 -12 -30
-16 -16 -4 -30 -11 -30 -16 0 -5 -11 -9 -25 -9 -14 0 -28 -7 -31 -15 -4 -8
-17 -15 -30 -15 -15 0 -24 -6 -24 -15 0 -10 -10 -15 -30 -15 -20 0 -30 -5 -30
-15 0 -8 -9 -15 -20 -15 -11 0 -20 -4 -20 -10 0 -5 -11 -12 -25 -16 -14 -3
-25 -10 -25 -14 0 -5 -13 -11 -30 -15 -16 -4 -30 -13 -30 -21 0 -8 -10 -14
-24 -14 -13 0 -26 -7 -30 -15 -3 -8 -17 -15 -31 -15 -16 0 -25 -6 -25 -15 0
-8 -7 -15 -16 -15 -8 0 -22 -7 -30 -15 -9 -8 -24 -15 -35 -15 -10 0 -19 -4
-19 -10 0 -5 -11 -12 -25 -16 -14 -3 -25 -12 -25 -20 0 -9 -11 -14 -30 -14
-20 0 -30 -5 -30 -15 0 -10 -10 -15 -30 -15 -20 0 -30 -5 -30 -15 0 -8 -7 -15
-15 -15 -8 0 -15 -4 -15 -9 0 -5 -13 -12 -30 -16 -16 -4 -30 -11 -30 -16 0 -5
-11 -9 -25 -9 -16 0 -25 -6 -25 -15 0 -10 -10 -15 -30 -15 -20 0 -30 -5 -30
-15 0 -8 -9 -15 -20 -15 -11 0 -20 -4 -20 -10 0 -5 -11 -12 -24 -16 -14 -3
-27 -12 -30 -20 -3 -8 -17 -14 -31 -14 -16 0 -25 -6 -25 -15 0 -10 -10 -15
-30 -15 -20 0 -30 -5 -30 -15 0 -9 -9 -15 -24 -15 -13 0 -26 -7 -30 -15 -3 -8
-12 -15 -21 -15 -8 0 -15 -4 -15 -10 0 -5 -7 -10 -15 -10 -13 0 -15 177 -15
1535 0 1372 2 1535 15 1535 9 0 18 7 21 15 4 8 17 15 30 15 15 0 24 6 24 15 0
10 10 15 30 15 20 0 30 5 30 15 0 9 9 15 25 15 16 0 25 6 25 15 0 10 10 15 30
15 20 0 30 5 30 15 0 8 7 15 16 15 8 0 22 7 30 15 9 8 24 15 35 15 10 0 19 4
19 10 0 5 11 12 25 16 14 3 25 12 25 20 0 9 11 14 30 14 20 0 30 5 30 15 0 8
7 15 15 15 8 0 15 4 15 9 0 5 14 12 30 16 17 4 30 11 30 16 0 5 7 9 15 9 8 0
23 9 32 20 10 11 23 20 30 20 7 0 13 4 13 9 0 5 14 12 30 16 17 4 30 10 30 15
0 4 11 11 25 14 14 4 25 11 25 16 0 6 14 10 30 10 20 0 30 5 30 15 0 8 9 15
20 15 11 0 20 4 20 10 0 5 11 12 25 16 14 3 25 12 25 20 0 9 11 14 30 14 20 0
30 5 30 15 0 9 9 15 25 15 16 0 25 6 25 15 0 10 10 15 30 15 20 0 30 5 30 15
0 8 7 15 16 15 8 0 22 7 30 15 9 8 24 15 35 15 10 0 19 4 19 9 0 5 10 13 23
17 12 4 25 11 28 16 3 5 19 10 35 11 l29 2 2 -560 c1 -308 0 -579 -3 -602 -3
-28 -10 -43 -20 -43 -8 0 -14 -4 -14 -10 0 -5 -11 -12 -25 -16 -14 -3 -25 -12
-25 -20 0 -9 -11 -14 -30 -14 -20 0 -30 -5 -30 -15 0 -8 -9 -15 -20 -15 -11 0
-20 -4 -20 -10 0 -5 -11 -12 -25 -16 -14 -3 -25 -10 -25 -14 0 -5 -13 -11 -30
-15 -16 -4 -30 -10 -30 -15 0 -5 -13 -11 -30 -15 -16 -4 -30 -10 -30 -15 0 -5
-13 -11 -30 -15 -16 -4 -30 -10 -30 -15 0 -4 -11 -11 -25 -14 -14 -4 -25 -11
-25 -16 0 -6 -9 -10 -20 -10 -11 0 -20 -7 -20 -15 0 -10 -10 -15 -30 -15 -20
0 -30 -5 -30 -15 0 -9 -9 -15 -25 -15 -16 0 -25 -6 -25 -15 0 -8 -7 -15 -15
-15 -19 0 -55 -31 -55 -47 0 -7 -4 -13 -10 -13 -6 0 -10 -83 -10 -230 l0 -230
24 0 c13 0 26 7 30 15 3 8 12 15 21 15 8 0 15 4 15 9 0 5 11 12 25 15 14 4 25
10 25 15 0 5 14 12 30 16 17 4 30 10 30 15 0 5 14 11 30 15 17 4 30 11 30 16
0 5 7 9 15 9 9 0 18 7 21 15 4 8 17 15 30 15 15 0 24 6 24 15 0 10 10 15 30
15 20 0 30 5 30 15 0 9 9 15 25 15 16 0 25 6 25 15 0 10 10 15 30 15 20 0 30
5 30 15 0 8 7 15 16 15 8 0 22 7 30 15 9 8 24 15 35 15 10 0 19 4 19 10 0 5
11 12 25 16 14 3 25 12 25 20 0 9 11 14 30 14 20 0 30 5 30 15 0 8 7 15 15 15
8 0 15 4 15 9 0 5 14 12 30 16 17 4 30 11 30 16 0 5 7 9 15 9 8 0 23 9 32 20
10 11 28 20 40 20 13 0 23 4 23 9 0 5 14 12 30 16 17 4 30 11 30 16 0 5 9 9
19 9 11 0 26 7 35 15 8 8 19 15 25 15 6 0 11 7 11 15 0 8 7 15 15 15 8 0 15 7
15 15 0 8 7 15 15 15 13 0 15 101 15 850 0 749 2 850 15 850 8 0 15 7 15 15 0
9 9 15 24 15 13 0 26 7 30 15 3 8 12 15 21 15 8 0 15 4 15 10 0 5 11 12 24 16
14 3 27 12 30 20 3 8 17 14 31 14 16 0 25 6 25 15 0 8 7 15 16 15 8 0 22 7 30
15 9 8 24 15 35 15 10 0 19 4 19 10 0 5 11 12 24 16 14 3 27 12 30 20 3 8 17
14 31 14 14 0 25 4 25 9 0 5 11 12 25 15 14 4 25 11 25 16 0 6 9 10 20 10 11
0 20 7 20 15 0 10 10 15 30 15 20 0 30 5 30 15 0 9 9 15 25 15 16 0 25 6 25
15 0 8 7 15 16 15 8 0 22 7 30 15 9 8 24 15 35 15 10 0 19 4 19 10 0 5 11 12
24 16 14 3 27 12 30 20 3 8 17 14 31 14 16 0 25 6 25 15 0 9 9 15 24 15 13 0
26 7 30 15 3 8 12 15 21 15 8 0 15 4 15 9 0 5 14 12 30 16 17 4 30 11 30 16 0
5 11 11 24 15 14 3 27 12 30 20 3 8 16 14 30 14 13 0 26 7 30 15 3 8 12 15 21
15 8 0 15 4 15 9 0 5 11 12 25 15 14 4 25 11 25 16 0 6 14 10 30 10 20 0 30 5
30 15 0 9 9 15 25 15 14 0 28 7 32 16 3 9 15 14 32 12 l26 -3 2 -1518z m-6603
548 c8 -8 22 -15 30 -15 9 0 16 -7 16 -15 0 -9 9 -15 25 -15 14 0 28 -6 31
-14 3 -8 16 -17 30 -20 13 -4 24 -11 24 -16 0 -6 9 -10 19 -10 11 0 26 -6 33
-13 7 -7 21 -16 31 -20 9 -3 17 -11 17 -17 0 -5 11 -10 25 -10 16 0 25 -6 25
-15 0 -10 10 -15 30 -15 20 0 30 -5 30 -15 0 -9 9 -15 25 -15 16 0 25 -6 25
-15 0 -10 10 -15 30 -15 20 0 30 -5 30 -15 0 -8 9 -15 20 -15 11 0 20 -4 20
-10 0 -5 12 -13 27 -16 15 -4 34 -13 41 -21 7 -7 20 -13 28 -13 8 0 14 -4 14
-9 0 -5 14 -12 30 -16 17 -4 30 -11 30 -16 0 -5 7 -9 15 -9 8 0 15 -7 15 -15
0 -10 10 -15 30 -15 20 0 30 -5 30 -15 0 -10 10 -15 30 -15 20 0 30 -5 30 -15
0 -8 6 -15 14 -15 8 0 21 -6 28 -13 7 -8 26 -17 41 -21 15 -3 27 -11 27 -16 0
-6 9 -10 20 -10 11 0 20 -7 20 -15 0 -9 9 -15 25 -15 14 0 28 -7 31 -15 4 -8
17 -15 30 -15 14 0 24 -6 24 -14 0 -8 11 -17 25 -20 14 -4 25 -11 25 -16 0 -6
9 -10 20 -10 11 0 20 -7 20 -15 0 -8 9 -15 20 -15 11 0 29 -9 40 -20 20 -20
20 -33 20 -1555 l0 -1535 -40 0 c-26 0 -43 5 -46 14 -3 8 -16 17 -30 20 -13 4
-24 11 -24 16 0 6 -11 10 -25 10 -14 0 -28 7 -31 15 -4 8 -12 15 -19 15 -8 0
-20 6 -27 13 -7 8 -26 17 -41 21 -15 3 -27 11 -27 16 0 6 -9 10 -20 10 -11 0
-20 7 -20 15 0 10 -10 15 -30 15 -20 0 -30 5 -30 15 0 9 -9 15 -24 15 -13 0
-26 7 -30 15 -3 8 -15 15 -26 15 -12 0 -28 7 -36 15 -9 8 -24 15 -35 15 -10 0
-19 7 -19 15 0 8 -7 15 -15 15 -8 0 -15 4 -15 9 0 5 -13 12 -30 16 -16 4 -30
10 -30 15 0 4 -11 11 -25 14 -14 4 -25 11 -25 16 0 6 -9 10 -19 10 -11 0 -26
6 -33 13 -7 7 -21 16 -30 20 -10 3 -18 11 -18 17 0 5 -13 10 -30 10 -20 0 -30
5 -30 15 0 8 -6 15 -14 15 -8 0 -21 6 -28 13 -7 8 -26 17 -41 21 -15 3 -27 11
-27 16 0 6 -7 10 -15 10 -8 0 -15 7 -15 15 0 10 -10 15 -30 15 -20 0 -30 5
-30 15 0 10 -10 15 -30 15 -20 0 -30 5 -30 15 0 9 -9 15 -24 15 -13 0 -26 7
-30 15 -3 8 -12 15 -21 15 -8 0 -15 4 -15 9 0 5 -13 12 -30 16 -16 4 -30 11
-30 16 0 5 -11 11 -25 15 l-25 6 0 1504 c0 996 3 1504 10 1504 6 0 10 14 10
30 0 17 -4 30 -10 30 -14 0 -12 27 3 33 23 10 46 7 61 -8z"/>
<path d="M3100 6515 c0 -8 -9 -15 -20 -15 -11 0 -20 -7 -20 -15 0 -9 -9 -15
-24 -15 -17 0 -26 -7 -30 -25 -4 -14 -11 -25 -16 -25 -6 0 -10 -9 -10 -20 0
-11 -6 -20 -14 -20 -18 0 -28 -100 -20 -191 5 -48 11 -69 20 -69 8 0 14 -11
14 -25 0 -16 6 -25 15 -25 8 0 15 -7 15 -15 0 -8 7 -15 15 -15 8 0 15 -7 15
-15 0 -8 6 -15 14 -15 8 0 22 -8 32 -17 14 -14 37 -17 126 -18 69 0 111 4 116
11 4 6 18 15 32 19 25 8 80 57 80 72 0 5 9 16 20 26 11 9 20 24 20 32 0 8 5
15 10 15 6 0 10 40 10 100 0 55 -4 100 -9 100 -5 0 -12 14 -16 30 -4 17 -13
30 -21 30 -8 0 -14 7 -14 15 0 8 -7 15 -15 15 -8 0 -15 7 -15 15 0 8 -7 15
-15 15 -8 0 -15 7 -15 15 0 9 -9 15 -25 15 -16 0 -25 6 -25 15 0 12 -19 15
-115 15 -96 0 -115 -3 -115 -15z"/>
</g>
</svg>
